<?xml version="1.0" encoding="utf-8"?>
<!-- Generator: Adobe Illustrator 19.0.0, SVG Export Plug-In . SVG Version: 6.00 Build 0)  -->
<svg version="1.1" id="Layer_1" xmlns="http://www.w3.org/2000/svg" xmlns:xlink="http://www.w3.org/1999/xlink" x="0px" y="0px"
	 viewBox="0 0 600 600" style="enable-background:new 0 0 600 600;" xml:space="preserve">
<style type="text/css">
	.st0{fill:#FFFFFF;}
	.st1{fill:#EB194A;}
	.st2{fill:#214498;}
</style>
<g id="XMLID_2231_">
	<path id="XMLID_2336_" d="M556.5,488.6c-0.6-1.5-1-2.8-1.5-4.1c-11.7-27.8-23.8-55.5-34.8-83.6c-6.2-15.9-15.1-29.4-27.7-40.8
		C480,348.8,468,336.8,455.9,325c10.4-3.6,20.2-8.9,27.7-17.6c6.8-8,9.9-16.7,4.9-27c-1.4-2.8-2.1-6.1-2.6-9.2
		c-3.2-18.3-6-36.7-9.3-54.9c-1.3-7.5-3.8-14.9-4.9-22.5c-1.8-11.4-2.5-23.1-4.3-34.5c-4.3-26.4-21.8-43-48.4-46.6
		c-1.9-0.3-3.7-1.2-5.5-1.7c-3.6-1-7.3-2.6-11-2.9c-4.5-0.4-9.1,0.3-13.7,0.6c-4.6,0.3-9.2,0.3-13.8,1c-16,2.3-27.5,10.4-34,25.7
		c-6.3,14.7-11.1,29.9-13.9,45.6c-2.2,12-5.2,23.6-11.2,34.4c-3.9,7.1-7.2,14.5-10.5,21.9c-0.7,1.6-1.2,3.5-0.9,5.2
		c1.1,6.7,2.1,13.5,3.8,20.1c2.2,8.8,4.9,17.4,7.5,26.1c1.9,6.4,4.4,12.6,6,19.1c2.9,11.6,5.5,23.5-0.3,34.9
		c-5.2,10.3-12.9,18.9-22.9,25.2c-6.3,3.9-12.9,6-19.7,6.8c-0.3-1.2-0.7-2.3-1.2-3.3c5.9-0.6,11.6-2.3,17.1-4.9
		c14.5-7,19.6-20.7,23.9-34.8c0.8-2.6,0.5-5.5,0.7-8.3c-7.6,14.2-10.8,18.4-16.2,20.4c8.1-15.6,12.4-32,11.2-49.7
		c-4.3,11.4-7.6,17-12.1,19.6c6-10.1,9.2-21.9,7.5-28.4c-4.1,5.9-6.9,12.9-14.4,16c9.9-25.7,12-51.3,5-60.9
		c-0.3,17.1-4.4,32.6-16.2,46.6c4.2-20.7,11.6-40.1,5.6-60.7c1.5-0.3,3-0.5,4.9-0.8c-10.1-6.4-12.2-8.3-13.6-12.3
		c4.3,1.8,8.5,4.4,13.7,2.4c-4.1-2.7-7.8-5.1-11.5-7.5c4.4,0.1,8.5,1.2,12.3-2.9c-2-0.1-3.2-0.2-4.8-0.3c1.6-1.1,2.9-1.9,4.7-3.1
		c-1.9-0.4-2.8-0.6-4-0.8c1.6-0.8,2.7-1.4,4.3-2.2c-1.1-0.8-1.9-1.4-2.5-1.8c1.2-1.2,2.4-2.2,3.6-3.4c-3.1-1-5.5-1.7-7.9-2.5
		c0-0.2,0.1-0.5,0.1-0.7c2-0.4,4-0.8,6.7-1.4c-3.3-1.9-5.6-3.3-8-4.7c0.1-0.2,0.2-0.4,0.3-0.6c1.9,0.6,3.8,1.2,6.4,1.9
		c-0.7-4.1-1.2-7.5-2-10.8c-2.1-9.2-5.6-17.4-15.6-20.6c-1-0.3-1.6-2-2.5-3.3c-3.6,0.7-6.4,3-6.9,6.9c-0.9,7.1-1.7,14.4-1.6,21.5
		c0.1,12,2.2,23.6,7.2,34.6c0.8,1.7,1.4,3.5,2,5.3c-0.5,0.2-1,0.4-1.5,0.7c-2.8-5.8-5.9-11.5-8.5-17.5c-2.5-5.9-4.3-12.1-6.5-18.1
		l0-0.1c-9.5-2.6-17.3-6.7-23.1-12.4c-3.2-3.1-4.7-5.6-6.2-8c-1.9-3.1-3.9-6.3-9-10.4c-8.9-7.2-17.7-10.2-21.1-11.1
		c-2.4-0.7-4.9-1.2-7.4-1.5c-0.9-0.3-2.4-0.6-4.3-0.5c-0.5,0-3,0.3-5.4,2.1c-3.2,2.4-4.1,6-4.5,8.3c-1,7.3,0.8,14.1,6,19.9
		c-0.8,0.2-1.2,0.3-1.6,0.4c-10.9,3.1-18.3,15.3-14.4,24.6c3.5,8.2,9.1,14.7,17.6,18.3c1.6,0.7,3.1,1.4,5.2,2.4
		c-1.5,0.9-2.5,1.4-3.4,2c-5.8,4.6-10.3,13-4,21.8c3.8,5.2,9,8.2,15,9.1c6,1,7.7,4.9,9,10c-5.7,3.2-9.2,8-7.7,14.5
		c2.2,9.4,10.1,11.8,18.3,12.4c-0.6,3.9-1.3,7.8-2,11.6c-6.6-0.2-12.7,1.3-17.8,4.3c-2.4-2.8-6-4.5-10.3-4.5c-2.9,0-5.9,0-8.7-0.1
		c-2.7-0.1-5.3,0.6-7.5,1.9c-2.1-1.5-4.8-2.4-7.7-2.4c-6.9-0.2-13.8-0.3-20.7-0.6c-2.8-0.1-5.4,0.5-7.5,1.6
		c-2.4-1.6-5.4-2.4-8.6-2.3c-2.6,0.1-5.1,0.1-7.5,0c-3.5-0.2-6.6,0.7-9.1,2.5c-2.5-1.9-5.5-2.9-9-2.9c-4.8,0-9.7-0.1-14.5-0.2
		l-2.7,0c-3.9,0-7.1,1.3-9.6,3.7c-2.5,2.4-3.8,5.8-3.8,9.4c0,4.1,0,8.1,0,12.2c0,3.8,1.3,7.3,3.9,9.7c2.4,2.4,5.7,3.7,9.2,3.7
		l1.2,4.2c2.3,8,4.7,15.9,7.1,23.9c0.3,0.9,0.7,1.9,1.3,2.8c-0.1,0-0.2,0-0.3,0c-1.6,0-3.3,0.1-4.9,0.1c-3.8,0.1-7.2,1.5-9.6,4.1
		c-2.5,2.6-3.7,6.1-3.5,10c0.1,1.9,0.1,3.7,0.1,5.6c0,12.7,4.1,17.9,15.2,18.8c2.3,3.4,4.3,6.5,6,9.4c0,0.1,0.1,0.4,0.2,0.9
		c0.2,4.2,0.2,8.6,0.1,12.6c0,1.2,0.1,2.3,0.3,3.4c-1.2,0.1-2.3,0.1-3.5,0.2l-9.1,0.6c-4.4,0.3-7.8,1.9-10.3,4.7
		c-2.3,2.7-3.4,6.4-3,10.2c0.7,7.1,1.2,13.6,1.7,19.7c0.3,3.9,1.8,7.1,4.5,9.4c2.7,2.3,6.1,3.2,9.9,2.9c0,0,0.1,0,0.1,0
		c0.6,8,1.3,16,1.9,24c0.5,6.4,1,12.8,1.6,19.2c0.1,1.6,0.6,6.4,4.9,9.8c2.2,1.8,5,2.7,8,2.7c0.7,0,1.4,0,2.1-0.1
		c4.7-0.7,9.4-1.3,14.1-1.9c6.6-0.9,14.8-2,22.6-3.2c7-1.1,13.1-3.7,18.2-7.8c0.1,0.1,0.2,0.2,0.3,0.3c2.4,2.4,5.6,3.7,9.2,3.7
		c1.2,0,2.2-0.1,2.5-0.2c1.9-0.3,3.8-0.5,5.8-0.8c3.1-0.4,6.4-0.8,9.7-1.4c5.2-0.9,9.9-5.2,11.2-10.4c0.1-0.5,0.2-1,0.4-1.6
		c2.4,5.9,8.1,9.3,14.6,8.4c5.1-0.7,10.3-1.4,15.4-2c1-0.1,2-0.4,2.9-0.7c0.4,0,0.9-0.1,1.3-0.1h0c1.3,0,2.6-0.2,3.8-0.3
		c3.8-0.5,7.6-1,11.5-1.5l0.6-0.1c4.1-0.6,8.2-1.1,12.3-1.6c7.7-0.9,14.2-3.8,19.3-8.5c0.5,0.5,1,1,1.6,1.5
		c3.1,2.5,6.9,3.4,11.5,2.6c7.4-1.2,14.9-2.2,22.2-3.2c10.6-1.4,18.7-7,23.2-15.7c0.5,0,1.1,0,1.6,0c0.6,3.2,2.1,5.9,4.4,7.8
		c2.8,2.3,6.6,3.2,10.3,2.7l1.1-0.2c2.4-0.4,4.6-0.7,6.8-0.9c5.9-0.6,10.2-4.2,11.6-9.4c0.7,0,1.5,0,2.2,0c0.6,1,1.4,1.9,2.3,2.7
		c3,2.6,6.8,3.7,11.3,3l1.6-0.3c1.5-0.2,2.9-0.5,4.4-0.6c3.8-0.4,6.9-2.2,9-4.8c16.8,0,33.5,0,50.1,0c0.4-1.8,0.7-3.3,1.1-4.8
		c0.4,0,0.9-0.1,1.3-0.1c0.4,1.6,0.9,3.3,1.4,5.5c6.9-1.6,14.1,1.6,21.1-1.8c1.9-0.9,4.7-0.1,7,0.2c2.1,0.3,4.1,1.1,6.1,1.6
		c0.4-6.3,0.9-11.6,1.1-17c0.2-5.1,0-10.3,0-15.4c0.5,0,0.9,0,1.4,0c0,10.7,0,21.3,0,32c0.4,0.1,0.7,0.2,1.1,0.3
		c0.3-1.2,0.9-2.4,0.9-3.6c0.2-9.5,0.2-19,0.3-28.6c0.1-5.8-0.2-6-6-6.5c-16-1.4-32.1-2.8-48.1-4.2c-0.8-0.1-1.5-0.4-2.3-0.7
		c1-0.8,1.8-0.9,2.6-0.9c17,1.6,34,3.3,51,4.8c2.9,0.3,3.9,1.5,3.9,4.2c0,5.6,0.2,11.2,0.3,16.8c0,6.1,0,12.2,0,18.2
		c7.6,0,14.3,0,21.3,0c-3.8-22.6-6.1-45.2-16.4-66.1c0.9-0.4,2-0.9,3.6-1.6c1.8,5.2,3.9,9.9,5.1,14.9c4.1,16.8,7.9,33.7,11.9,50.5
		c0.2,1,1,1.8,1.6,2.7c0.5-0.3,0.9-0.5,1.4-0.8c-3.5-22.6-9.6-44.5-16.2-66.3c9.1,21.5,13.8,44.2,18.5,66.8
		C539.9,488.6,548,488.6,556.5,488.6z M483.2,271.8c-5.9-27.2-11.7-54.4-17.6-81.7C474.9,216.6,479.3,244.1,483.2,271.8z
		 M182.2,191.2c-4.5,0-5.8-1.3-5.9-6c-0.1-5.2,3.2-9.4,7.3-9.5c5-0.1,10.6,3.3,10.6,6.4C194.2,186.3,187.7,191.2,182.2,191.2z
		 M203.8,233.5c-3.5,0.3-6.5,0.2-7.4-4.1c-0.8-3.9,1.2-9.5,4.6-10.2c3.6-0.7,7.5-0.7,11.1-0.1c3.6,0.6,5.1,3.8,5,7.3
		c-0.1,3.7-2.4,5.4-5.8,6C208.8,232.8,206.3,233.2,203.8,233.5z M218.6,237.4c1.2-1.2,2.2-2.4,4.4-4.8c0,3.1,0.8,6.1-0.2,6.9
		c-1.9,1.5-4.8,1.8-7.2,2.6c-0.2-0.5-0.4-1-0.6-1.5C216.2,239.6,217.4,238.6,218.6,237.4z M231.7,273.4c-4.3,1.2-8.7,1.7-13.1,2.4
		c0-0.1-0.1-0.3-0.1-0.4c-1,0-2.1,0.3-2.9-0.1c-2.2-0.8-5.7-1.4-6.1-2.9c-0.6-2.2,0.2-5.6,1.6-7.6c4.1-5.8,17.2-6.7,22.5-2.1
		C237.1,265.8,236.1,272.1,231.7,273.4z M243.4,226.2c-2.2-12.9-4.5-25.9-6.7-38.8c-0.5,16.9-0.5,33.5-0.5,50.2c0,6.2-1.4,7.3-7.8,6
		c1-5.8-0.1-11-3.8-15.7c-1.7-2.2-1.3-4,1.3-5.8c6.5-4.5,7.1-15.1,1.4-19.8c0.7,12.8-3.5,15.5-15.5,10.2c6.7-7.9,8-11.6,5.5-16.7
		c-2.1,5.2-3.4,10.6-9.5,14.3c3.2-5,5.8-9.1,3.7-14.2c-3,4.7-4.1,10.6-9.8,13.8c5.5-11.2,5.7-12.3,2.9-15.9
		c-0.8,2.2-1.5,4.3-2.6,7.4c0-5.2,0-9.1,0-12.5c7.6,2.7,15.2,5.3,22.7,8c0.1-0.3,0.3-0.5,0.4-0.8c-0.7-0.8-1.4-1.7-2.1-2.6
		c1.6-0.5,2.9-0.9,4.4-1.4c-1-0.6-1.8-1.1-2.5-1.6c5-7.7,4.7-15.2-0.2-19.3c-3.4,8.3-9.3,12-16.5,10.4c9.2-8.1,10.7-11.5,7.4-16.3
		c-4.9,10.2-5.1,10.4-7.7,11.1c1.4-3.9,3-8.3,4.6-12.6c-0.4-0.1-0.8-0.3-1.2-0.4c-8.3,7.9-9.4,8.4-14.7,6.2c3.1-2.4,6.8-4.3,6.6-9.4
		c-1.7,1.6-3,2.8-4.5,4.2c0-4.2,0-8.1,0-13c-2.2,1.9-3.3,3-4.5,3.9c-3.8,2.8-8.6,3.1-10.8,0.7c-2.4-2.7-1.6-8.3,1.4-10.9
		c3-2.7,7.6-1.6,13.5-0.1c0,0,10,2.4,20.2,10.6c4.8,3.9,6.6,6.7,8.5,9.8c1.6,2.6,3.2,5.2,6.6,8.5c0.5,0.5,1.1,1,1.7,1.5
		c-0.1,0.1-0.2,0.1-0.3,0.2C240.5,191.8,244.1,208.7,243.4,226.2z M266.4,266.4c-0.3,3.8-2.5,7-5.7,8.8c0.3-6.8,1.7-13.5,0.7-19.9
		c-2.7-17.9-6.2-35.7-9.7-53.5c-0.8-3.9-2.8-7.6-4.3-11.3c-1,0.8-1.1,1.2-1,1.6c6.1,20.7,7.6,42,7.3,63.5
		c-0.1,5.3-0.8,10.6-4.7,15.8c0-8.5,0-16,0-23.5c-0.1-21-1.5-41.9-7.8-62.2c-1-3.1-2.5-6-4-8.9c2.5,1.9,5.6,3.9,9.4,5.8
		c4,2,7.6,3.2,10.7,4.1c0.4,1.4,0.7,2.9,1.1,4.3c-1.5-1.4-2.8-2.7-5-4.8c0.8,2,1.2,2.9,1.6,3.8c6.4,14.5,13,28.9,12.8,45.2
		C267.6,245.5,267.2,256,266.4,266.4z M287.2,169.8c-3.2-4.5-11.2-4.5-11.6-12.4C282.1,159.4,285,164.3,287.2,169.8z M485.9,482.6
		c-1.9,0.2-3.8-0.3-5.9-0.5c0-1.4,0-2.6,0-4.2c2.2,0.1,4.2-0.1,6.2,0.4c1,0.2,1.7,1.6,2.6,2.5C487.8,481.4,486.9,482.5,485.9,482.6z
		 M488.2,462.2c0,3.8,0,7.1,0,10.7c-2.7,0-5.4,0-8.5,0c-0.2-3.6-0.3-7-0.5-10.7C482.3,462.2,485,462.2,488.2,462.2z M471.6,461.3
		c1.7,0.3,3.3,1.2,4.9,1.9c-1.1,0.6-2.2,1.1-3.6,1.9c-1.5-0.9-2.8-1.6-4.1-2.3C469.8,462.2,470.8,461.1,471.6,461.3z M470.4,477.2
		c1.9,0,3.8,0.3,5.8,0.4c-0.1,0.5-0.1,1-0.2,1.5c-2.2,0-4.4,0-7.4,0C469.4,478.2,469.9,477.2,470.4,477.2z M457.6,457
		c3,2,3.1,5.6,0,7.7C457.6,462,457.6,459.6,457.6,457z M449.2,455c0-0.9,1.2-1.8,2.1-3c0,9.7,0,18.6,0,27.5c-0.7,0-1.4,0-2.1,0
		C449.1,471.3,449,463.2,449.2,455z M450.2,193.4c-5.9-12.6-16.1-16.4-29.2-14C434.3,174.9,447.9,181.5,450.2,193.4z M432.5,272.3
		c-0.8,0.9-1.6,1.8-2.5,2.8c-0.2-0.1-0.4-0.3-0.6-0.4c1.9-3.2,3.8-6.3,6.3-10.5c-0.5,13.7-1,26.1-1.4,38.5c-0.2,0-0.4,0-0.7,0.1
		c0-10.1,0-20.1,0-30.2C433.2,272.5,432.8,272.4,432.5,272.3z M420.3,269.3c1.1-6.6,8-10.7,13.3-7.7
		C429.1,264.2,425.1,266.5,420.3,269.3z M426.3,296c-0.5-4-8.2-7.1-2.6-11.9C424.6,288.2,425.4,292.1,426.3,296z M380.1,246
		c-1.9-0.2-3.6-1.3-5.5-1.6c-2.1-0.4-4.2-0.4-6-0.5c0.6-1,1.4-3.3,3-4.5c1.3-1,3.6-0.7,5.5-1c0.2,0.4,0.5,0.8,0.7,1.3
		c6.9-8,13.9-16,20.6-24.2c1.5-1.8,1.8-4.6,2.5-7c1.4-5.3,4.2-8.1,8.3-7.9c4.7,0.2,8.5,3.8,8.5,9.1c0,4.5,1.7,7.9,4.1,11.6
		c5.7,8.9,11,18.1,16.7,27.4c0.8-0.5,1.2-1,1.8-1.2c1.2-0.4,2.6-1.2,3.6-0.8c0.8,0.3,1.7,2,1.6,2.9c-0.2,1.1-1.3,2.5-2.4,2.9
		c-1.8,0.6-3.8,1-5.7,0.8C418.3,250.9,399.2,248.5,380.1,246z M386.8,201.4c-0.1-1.1-0.2-1.6-0.2-2.2c0-5.6,0-5.6,5.5-5.2
		c2.5,0.2,5,0.4,8.4,0.7C396.7,199.4,391.8,199.9,386.8,201.4z M396.9,204.3c-0.9,5.9-3.9,9.5-9.3,11.2c-1.9-3.4-3.7-6.7-5.4-9.8
		C386.3,205.3,391.5,204.8,396.9,204.3z M357.5,186.7c6-13.5,27.8-19,39.9-10.3C381.8,171.2,367.9,172,357.5,186.7z M380.9,202
		c-3.4,0-6.7,0-10,0c-0.8-8.7,0.7-10.1,10.2-8.7c-0.1,1.3-0.2,2.6-0.2,3.9C380.9,198.6,380.9,200,380.9,202z M372.4,206.8
		c-0.3,0.7-0.4,1-0.5,1c-7.5,1.7-7.5,1.6-5.9,9.2c1.3,6.4,2.4,12.8,3.5,19.2c-0.5,0.1-0.9,0.2-1.4,0.3c-1.7-9.2-3.4-18.4-5.2-28.1
		C366.1,207.9,369.1,207.4,372.4,206.8z M429,211.1c5.6,0.3,6.8,1.8,5.8,7.1c-0.6,3.4-1.3,6.8-1.9,10.2
		C425.8,223.6,424.9,217.8,429,211.1z M426.2,201.4c2.4,0,4.7,0,7.7,0c-0.3,2.4-0.5,4.5-0.7,6.6C426,206.9,425.4,206.4,426.2,201.4z
		 M421.1,187.7c7.6-1.9,13.1,0.3,16.5,6.5C433.2,189.3,427.8,187,421.1,187.7z M417.1,115.9c6.8,2.3,14,4.7,21.6,7.2
		c-9,9.4-8,20.6-8.8,32.1c7-0.6,7.6,4,8.1,8.9c0.3,3.2,0.4,3.2,5.8,6c-8.1,0-17,0-26.7,0C417.1,152.6,417.1,134.7,417.1,115.9z
		 M406.4,112.2c6.2,0.5,8,1.7,8.2,7.5c0.6,14.8,0.8,29.6,1.1,44.5c0.1,3.2-1.9,3.6-4.4,3.6c-2.4-0.1-4.5-0.3-4.5-3.6
		c-0.2-17.1-0.5-34.2-0.8-51.2C406,112.7,406.2,112.5,406.4,112.2z M368.8,155.5c-0.3-1.4-0.7-2.8-0.4-4.1c0.2-1.1,1.3-2.8,2.1-2.8
		c3.9-0.1,4.2-2.7,3.5-5.2c-1.7-6.6-3.5-13.2-6-19.5c-1.6-4.1-4-4-9.8-0.9c4-8.6,27.6-12.6,46.4-7.6c0,17.7,0,35.5,0,53.6
		c-16.7-9.2-33.3-12.7-49.5,1.5c-0.2-0.4-0.3-0.8-0.5-1.2c3.5-2.3,6.7-5,10.4-6.6C368.6,161,369.5,159,368.8,155.5z M341.4,187.2
		c0.3,0.1,0.5,0.3,0.8,0.4c-2.3,4.7-4.7,9.5-7,14.2c-0.3-0.1-0.6-0.3-0.8-0.4C336.7,196.6,339.1,191.9,341.4,187.2z M318.6,293.8
		c0.1-0.7,0.3-1.3,0.4-2c3-0.8,6-1.9,9-2.2c11.6-1.4,22.4,2.2,33,6.2c7.7,2.9,15.2,6.4,22.7,9.8c2.1,1,3.6,1.2,4.6-1.4
		c0.3-0.9,1.7-1.4,2.6-1.9c0.3-0.2,0.8,0,1.2,0c9.7,0,9.8,0,8,9.9c2.9,1.1,5.8,2.1,9.1,3.4c0.1-1.8,0.2-3.2,0.3-5.3
		c3.3-0.2,6.5-0.4,10.1-0.6c0.3,2.1,0.4,3.9,0.8,5.6c0.4,1.7,1.1,3.4,1.6,5.1c0.8,2.5,1.5,5.1,2.2,7.7c0.4,1.4,0.4,3.7,1.2,4.1
		c3.6,1.6,7.4,2.7,11.1,3.9c0.2-0.3,0.5-0.6,0.7-0.9c-2.6-2.9-5.2-5.9-7.8-8.8c6.1,0,12.4,0.5,17.6,3.5c3.5,2,6,6,8.8,9.3
		c1.7,2.1,2.7,4.6,6.3,4.7c1.6,0.1,3.1,2.7,4.2,4.7c-4.3-0.9-9.1,0-12.3-4.2c-0.1,0.9-0.2,1.7-0.2,2.4c-9.5-3.3-19-6.7-28.5-9.9
		c-3.3-1.1-4.7-2.5-3.8-6.3c1.5-6.8,0.8-8.2-5.4-10.7c-20.3-8.2-40.6-16.4-61.1-24.2c-9-3.4-18.6-3.7-29.1-1.4
		c8.3,2.6,15.8,4.9,23.3,7.1c0,0.2-0.1,0.4-0.1,0.6c-1.1,0-2.3,0-3.4,0c-0.1,0.3-0.2,0.6-0.3,0.8c17.2,9.7,34.4,19.4,50.4,28.3
		c-4.7-1-11.1-2.4-17.5-3.7c-16.1-3.3-32.3-6.6-48.4-9.7c-2.5-0.5-3.8-1.4-3.4-4.6c18.3,2.8,36.1,7.6,54,12.3
		C361,312.5,341.3,300.3,318.6,293.8z M327.5,337.5c1.8,1.4,3.4,2.6,5.7,4.4c-3.5,1.8-6.1,3.2-8.7,4.5c-0.2-0.3-0.4-0.7-0.6-1
		C325,343,326.2,340.4,327.5,337.5z M320.6,350c0.5-0.5,0.8-1.1,1.4-1.8c4.6,2.8,7.9-0.4,11.4-2.6c0.4,0.2,0.8,0.5,1.1,0.7
		c-0.6,1.4-0.9,3.2-2,4.2c-2.1,1.8-4.5,3.3-6.9,4.6c-1.2,0.6-3.5,1.2-4.1,0.6C320.1,354.3,318.3,352.3,320.6,350z M317.3,356.1
		c6.9,9.8,11.3-1.3,17.3-1.9c0,4.7,0.1,9.5-0.1,14.3c0,0.8-0.8,1.7-1.5,2.2c-2.8,1.9-5.7,3.6-8.5,5.4c-2.3,1.6-3.9,1.5-5.1-1.5
		c-1.2-3.1-2.8-6.1-4.4-9C312.2,360.2,312.2,360.2,317.3,356.1z M310.4,363c2.5,5.3,4.4,9.6,6.5,13.9c2.1,4.4,4,5,8.3,2.6
		c1.6-0.9,3-2,4.5-3c1.5-1,2.9-2.1,5-3.6c-0.4,5.4-0.7,9.9-1.2,14.5c-0.1,0.9-1.3,2.1-2.2,2.5c-3.8,1.3-7.7,2.2-11.6,3.4
		c-2.7,0.8-4.3-0.3-5.2-2.7c-2.7-6.6-5.4-13.1-8.1-19.7C304.3,366.3,309.2,366.4,310.4,363z M329.3,414.8c-0.7,0.2-1.4,0.5-2.1,0.8
		l-0.2-0.4l0.1,0.4c-1.1,0.6-2.1,1.3-3,2.2c-0.6-0.3-1.2-0.4-1.8-0.6c-0.2-3.7-0.5-7.4-0.7-11.3c-3.8,0.9-7.3,1.7-10.8,2.5
		c-5.4,1.3-8.7,0-10.9-5.1c-3.3-7.8-6.3-15.8-9.5-23.7c-0.9-2.1-0.5-3.3,1.7-4.3c3.5-1.6,7-3.3,10.8-5.2c2.2,5.9,4.3,11.7,6.6,17.6
		c3.6,9.5,6.1,10.6,15.9,7.5c2.1-0.7,4.2-1.3,7.5-2.4C331.7,400.4,330.5,407.7,329.3,414.8z M334.5,414.1l-1.2,0.1
		c0.5-3.1,1-6.1,1.6-9.2c2.2,3,4.4,6,6.6,8.9C339,413.9,336.6,414,334.5,414.1z M348.8,414.3c-0.6-0.2-1.1-0.3-1.7-0.3
		c-6-10.5-11.5-19.8-9.7-32.2c1.3-8.4,0.2-17.1,0.2-25.7c0.4-0.1,0.8-0.2,1.3-0.2c2.8,8.7,5.2,17.5,8.3,26
		C351.2,392.1,350.7,402.6,348.8,414.3z M354.2,417.1c-0.5-0.4-1.1-0.8-1.6-1.2c0.4-2.3,1.2-4.6,1.2-6.8c0.4,2.3,0.9,4.6,1.3,7
		C354.8,416.4,354.5,416.8,354.2,417.1z M400.6,398.3c-8.3-1.6-16.5-3.6-24.9-4.8c-4.8-0.7-7-2.7-8.7-7.2
		c-4-10.6-8.7-20.9-13.1-31.3c-2.5-6-6.3-10.6-12.4-13.5c-5.1-2.5-11-4.7-12.9-11.2c-0.6-2-1-3.9-1.4-5.9c0.5-0.3,0.9-0.5,1.4-0.8
		c7.2,6.5,14.4,13.1,22.5,20.4c-4.1-8.2-10-13.4-16.9-19.4c9.3,2,17.3,4.3,25.5,5.3c7.4,0.9,12.1,4.9,16.2,10.5
		c12.7,17,19.6,36.5,25,56.7C401,397.4,400.8,397.7,400.6,398.3z M417.8,401.2c-5.3-21.7-14.4-41.6-28.2-59.2c-1.7-2.2-3.6-4.2-6-7
		c8.3,1,15.5,1.7,22.6,2.8c1.6,0.2,3.1,1.7,4.3,3c13.7,15.3,21,33.7,25.7,53.4c1.4,5.8,2.5,11.7,3.8,18c-7-2.3-13.4-4.2-19.6-6.6
		C419.2,404.9,418.2,402.7,417.8,401.2z M443,440.7c-0.8-0.1-1.7-1.9-2-3.1c-2.2-7.4-4.3-14.9-6.6-22.9c4.2,1.6,8.2,3,12.1,4.7
		c0.9,0.4,1.9,1.3,2.3,2.2c2.6,6.4,5.1,12.9,7.9,20.2C451.4,441.4,447.2,441.3,443,440.7z M462.6,442.3c-0.3,0-0.6,0-0.8,0
		c0-5.1,0-10.2,0-15.4c0.3,0,0.6,0,0.8,0C462.6,432,462.6,437.2,462.6,442.3z M471.1,442.9c-0.3,0-0.6,0-0.9,0c0-4.5,0-9,0-13.5
		c0.3,0,0.6,0,0.9,0C471.1,434,471.1,438.5,471.1,442.9z M479.3,443.4c-0.2,0-0.5,0-0.7,0c0-3.8,0-7.6,0-11.5c0.2,0,0.5,0,0.7,0
		C479.3,435.8,479.3,439.6,479.3,443.4z M469.9,424.7c-1.2-0.4-2.3-2.4-2.5-3.8c-2.4-18.1-5.5-36.1-12.6-53.1
		c-3.1-7.4-6.6-14.7-9.6-21.4c2.7,0.1,5.7,0.3,8.7,0.4c0,0,0,0.1,0,0.1c0.3,0.1,0.5,0.3,0.8,0.3c7.7,0.4,10,6.3,12.5,12.1
		c9.2,21.1,17.3,42.6,23.2,64.9c0.2,0.9,0.4,1.9,0.7,3.2C483.6,428,476.6,427.2,469.9,424.7z M496.4,445.6c-2.7-0.4-5.2-0.7-7.6-1
		c1.2-11.1,3-14,10.4-16.3C498.3,434,497.4,439.6,496.4,445.6z M504.1,420.6c-6.5-19.5-12.8-38.2-19.4-57.8
		c5.5,4.9,10.4,9.2,15.2,13.7c0.8,0.7,1.5,1.8,1.7,2.8c2.9,11.6,5.8,23.2,8.4,34.9C511.2,419,505.6,417.6,504.1,420.6z M515,418.6
		c-0.3-0.2-0.6-0.4-0.9-0.6c-1.7-9.1-3.5-18.3-5.2-27.4c0.4-0.3,0.8-0.5,1.2-0.8c1.7,3.3,3.9,6.5,4.9,10c1.4,4.5,2.1,9.3,2.5,14
		C517.6,415.3,515.9,417,515,418.6z"/>
	<path id="XMLID_2538_" d="M297.4,236.3c-1.5,9.6-3.1,19.2-4.6,28.8C296.4,255.8,298.8,246.3,297.4,236.3z"/>
	<path id="XMLID_2541_" d="M415.2,211.7c0.3-4.7-1.9-7.5-5.2-7.7c-3.4-0.2-5.9,1.8-6.5,6.7c-0.6,4.3-2.7,7.5-5.3,10.6
		c-2,2.3-4,4.7-5.9,7.1c-3.8,4.6-7.6,9.1-11.4,13.7c0.3,0.5,0.5,0.9,0.8,1.4c4.4-1.4,8.8-2.8,12.7-4.1c1.4,1.1,3.1,2.4,5.8,4.4
		c0.1-2.9-0.1-4.2,0.3-5.3c0.4-1.2,1.4-2.3,2.1-3.4c0.6,1.1,1.7,2.2,1.8,3.4c0.2,4.9,0.4,5.2,5.4,4.4c0.2-1.6,0.3-3.2,0.5-4.8
		c0.3-0.1,0.5-0.2,0.8-0.2c1.1,2,2.2,4,3.7,6.8c1.6-0.3,3.6-0.8,4.9-1.1c4.6,2,9.1,3.9,13.7,5.9c0.2-0.3,0.5-0.7,0.7-1
		c-5.1-8.6-10.1-17.3-15.4-25.7C416.2,219.1,415,215.8,415.2,211.7z M413.5,218.4c-3.4-0.4-6.1-0.7-9.6-1c0.5-3.1,0.5-6.1,1.6-8.6
		c0.6-1.3,3.1-2.7,4.6-2.5c1.3,0.2,3,2.3,3.3,3.9C413.9,212.5,413.5,215.2,413.5,218.4z"/>
</g>
<g id="XMLID_2479_">
	<path id="XMLID_2548_" class="st0" d="M89.9,327.6c0.6,0,1.2,0,1.8,0c0.8,0,1.6,0,2.4,0c0.1,0.4,0.2,0.7,0.3,1.1
		c0.1,0.2,0.1,0.4,0.2,0.6l2.1,7c2.3,7.9,4.7,15.9,7.1,23.8c0.7,2.3,3.3,5.7,6.9,5.8c0.9,0,1.7,0.1,2.6,0.1c2.1,0,4.1-0.1,6.1-0.2
		c1,0,1.9-0.1,2.9-0.1c1.8-0.1,6-0.7,7.6-5.6c2,4.9,6.1,5.4,8.5,5.2c2.5-0.2,5-0.2,7.6-0.3l1.7,0c1.5,0,4.4-0.4,6.3-3.1
		c0.2,0.3,0.5,0.7,0.9,1c2.2,2.1,5.1,1.9,6,1.9c2.9-0.2,5.8-0.1,8.3,0c2.4,0,4.3-0.6,5.8-2.1c1.4-1.4,2.1-3.4,2-5.8
		c-0.1-1.7-0.1-3.5-0.1-5.2c0-1,0-1.9,0-2.9c0-0.9,0-1.9,0-2.7c0.2,0,0.4,0,0.6,0c0,1.1,0,2.1,0,3.2c0,2.3,0,4.5,0,6.8
		c-0.1,2.6,0.6,4.7,2.2,6.2c1.5,1.5,3.5,2.1,6,2c2.2-0.1,4.5-0.2,7-0.2c0.2,0,0.4,0,0.7,0c2.4,0,4.3-0.7,5.7-2.1
		c1.4-1.4,2.1-3.4,2.1-5.8c0-0.1,0-0.3,0-0.4c3.6,4.2,8.7,6.9,15.6,8.2c1.6,0.3,3.2,0.4,4.9,0.4c9.3,0,18.1-4.8,22.7-12.7
		c0.8-1.3,1.4-2.7,1.9-4.2c0.1,2.2,0.2,4.6,0.1,7.4c0,0.9-0.1,3.6,2,5.6c1.4,1.3,3.2,2,5.6,1.9c2.3-0.1,4.5-0.1,6.9-0.1l0.1,0.6
		l4.8-0.3c1.5-0.1,3-0.2,4.5-0.3c4-0.2,8.1-0.5,12.1-1c3.3-0.4,6.2-2.5,7.9-4.3c3.1-3.4,4.4-8.1,3.7-13.4c-0.7-5.4-2.9-9.9-5.6-14
		c0.9,0,1.8,0,2.7,0.1c2.4,0.1,4.2-0.6,5.6-2c1.4-1.4,2.1-3.3,2-5.6c-0.1-2.9,0-5.8,0-8.3c0.1-4.3-2.7-7.3-6.9-7.5l-5.8-0.2
		c-4.4-0.2-8.8-0.4-13.1-0.5c-4.7-0.2-8.5,2.2-10.7,6.5c-0.6-6.3-4.2-6.9-9-7l-1.2,0c-2.3-0.1-4.1,0.6-5.5,1.9c-2,2-2,4.7-2,5.6
		c0,1.4,0,2.9,0,4.3c-3.9-7.2-11-11.8-20.4-12.8c-9.7-1.1-17.9,2-23.2,8.4c0-0.5,0-0.9,0-1.4c0-4.4-2.9-7.3-7.4-7.3
		c-3,0-6,0-8.9-0.1c-2.8-0.1-4.5,1.1-5.4,2c-1.4,1.4-2,3.3-2,5.6c0.1,2.5,0.1,5.1,0.2,7.6l0,1.7c-0.2,0-0.5,0-0.7,0
		c0-1.5,0-3.1,0-4.6c0-1.7,0-3.4,0-5.1c0.1-4.6-2.8-7.7-7.3-7.8c-6.9-0.2-13.9-0.3-20.8-0.6c-3.8-0.1-6.6,1.7-7.6,4.9
		c-1.2-3.7-4.1-5.8-8.1-5.6c-2.8,0.1-5.5,0.1-8.1-0.1c-4.3-0.2-7.5,2.3-8.4,6.6c-0.1,0.4-0.2,0.8-0.2,1.2c-0.1-0.3-0.2-0.6-0.3-0.9
		c-1.7-6.3-6.3-7.2-8.8-7.2c-4.9,0-9.8-0.1-14.6-0.2l-2.6,0c-2.2,0-4,0.6-5.3,1.9c-0.9,0.9-2,2.5-1.9,5c0,4.1,0,8.2,0,12.3
		c0,2.7,1.1,4.4,2,5.3C85.5,326.6,87.2,327.7,89.9,327.6z M260,324.7c0.1,0.7,0.2,1.3,0.4,2c1.1,4.4,3.2,8.1,5.4,11.2
		c-0.4,0-0.8,0-1.1,0c-3.8,0.1-7.5,0.2-11.3,0.3c-1.3,0-2.3,0.3-3.1,0.7l3.6-5.5c0.8-1.1,1.6-2.2,2.5-3.4
		C257.6,328.4,258.9,326.7,260,324.7z M219,329.4c0.5-1.5,1-1.9,2.5-1.9c0.1,0,0.1,0,0.2,0c1.7,0,1.8,0.2,2.2,1.6
		c0.4,1.2,0.6,2.6,0.9,4c0.1,0.4,0.1,0.7,0.2,1.1c-0.1,0.4-0.1,0.8-0.2,1.1c-0.2,1.3-0.4,2.4-0.7,3.4c-0.4,1.3-1.5,2.2-2.8,2.1
		c-0.8,0-1.9-0.1-2.4-2.5C218.1,334.7,218.1,332,219,329.4z"/>
	<path id="XMLID_2555_" class="st0" d="M141.7,399l-0.1,0.6l0,0.6c0.4,6.8,1.4,14.6,6.7,21.2c4.2,5.2,10.6,8.3,18.3,8.8
		c0.7,0,1.4,0.1,2.1,0.1c8.6,0,17.4-3.2,22.6-8.2c2.1-2,3.7-4.2,4.9-6.4c1.6,2.8,3.8,5.1,6.7,6.7c4,2.3,8.6,3.5,13.2,3.5
		c4.3,0,8.5-1,12.3-3c2.7-1.4,4.9-3.3,6.8-5.5c0.3,1.7,1.1,3,2.3,4c1.2,1,2.6,1.4,4.2,1.4c0.6,0,1.3-0.1,2.1-0.2
		c1.4-0.3,3-0.4,4.6-0.6l1.7-0.1c4.9-0.5,7.2-1.9,7.9-5.5c1.1,1.2,2.3,2.2,3.8,2.9c3.4,1.5,6.9,1.1,10.1,0.8c1-0.1,2.1-0.2,3-0.3
		c0.3,0,0.7,0,1.2-0.1c4.3-0.4,6.9-3.5,6.8-7.8c-0.1-3.5-0.2-6.2-0.1-8.7c0.1-3-1.1-4.7-2.1-5.7c-1-0.9-2.7-1.9-5.4-1.7
		c4.2-5,5.3-11,3.7-18.5c-1.7-7.7-9.4-13.7-17-13.3c-1.8,0.1-3.6,0.2-5.5,0.3c-4.4,0.2-8.9,0.4-13.3,0.5c-2.2,0-4,0.6-5.3,1.6
		c-1-0.5-2.2-0.9-3.9-0.9c-0.9,0-1.8,0-2.8,0c-1.1,0-2.2,0-3.3,0c-6.9,0.3-9.1,2.5-9,9.5c0,8.6,0.1,17.7,0,26.8
		c0,0.3-0.1,0.9-0.3,1.2c-0.3,0.3-0.9,0.4-1.6,0.4c-0.2,0-0.3,0-0.3,0c-0.1-0.2-0.2-0.7-0.3-1.5c-0.1-1.1-0.1-2.2-0.1-3.4l0-5.7
		c0-6.3-0.1-12.6-0.1-18.9c0-1,0-4-2.4-6.1c-1.6-1.4-3.7-1.9-6.2-1.6c-1.8,0.2-3.7,0.3-6.4,0.2c-2.5,0-4.5,0.7-6,2.1
		c-1.5,1.5-2.2,3.5-2.1,6c0,0.3,0,0.6,0,0.8c-6.4-6.9-15.1-9.4-26.7-7.4c-5,0.8-9.3,2.7-12.9,5.3l2.4-5.1l-12.9,0.8
		c-3.6,0.2-7,0.4-10.4,0.6c-3.6,0.1-6.3,1.9-8,5.1c-1.2,2.3-2.4,4.5-3.7,6.8c-1.3-2.2-2.7-4.6-4.3-6.8c-1.3-1.9-4-3.9-7-4
		c-3.5,0-7.1,0.1-10.5,0.2c-1.7,0.1-3.3,0.1-5,0.1c-2.7,0.1-4.4,1.2-5.3,2.2c-1.3,1.4-2,3.3-1.9,5.6c0.1,1.9,0.1,3.9,0.1,5.9
		c0,10.5,2.1,12.7,12.4,12.8c3.1,4.5,5.8,8.6,8.1,12.5c0.5,0.8,0.8,2.1,0.9,3.5c0.2,4.4,0.2,8.9,0.1,13.1c-0.1,2.6,0.7,4.6,2.3,6
		c1.3,1.2,2.9,1.8,4.9,1.8c0.4,0,0.8,0,1.2-0.1c3.2-0.4,6.7-0.7,10.2-1c4.3-0.3,6.9-3.2,6.8-7.7l0-1.1c-0.1-4.1-0.2-8.3-0.1-12.3
		c0-1.3,0.4-2.6,0.9-3.5c2.6-4.8,5.2-9.5,7.9-14.2c-0.1,0.5-0.1,0.9-0.2,1.4C142.1,396.7,141.9,397.9,141.7,399z M175.9,399.8
		c-0.1,1-0.1,1.7-0.3,2.5c-0.3,1.9-1.1,2.6-1.7,3c-1.4,0.8-3.4,0.7-4.6,0.3c-0.1-0.1-0.3-0.2-0.3-0.3c-1.5-3.4-1.8-6.9-0.9-10.4
		c0.6-2.1,1.5-2.6,2.4-3c0.8-0.3,1.5-0.4,2.1-0.4c0.4,0,0.8,0.1,1,0.2c0.9,0.4,1.4,1.8,1.6,2.5c0.3,1,0.5,2.2,0.6,3.3
		c0,0.3,0.1,0.6,0.1,0.8C175.9,398.9,175.9,399.4,175.9,399.8z"/>
	<path id="XMLID_2558_" class="st0" d="M408.5,456.1c0.9-2.3,1.7-4.5,2.8-6.5c3-5.6,4.3-11.1,3.9-16.5c-0.6-9-6-15.3-14.7-17.2
		c-6.2-1.4-11.5,0.5-15.4,2.5c-1.1-0.7-2.6-1.1-4.7-0.9c-1.1,0.1-2.2,0.1-3.3,0.2c-1.4,0.1-2.7,0.1-4.1,0.2
		c-7.2,0.7-8.9,2.1-10.9,8.8l-0.1,0.3c-0.3,1-0.6,2.1-1,3.1c-0.9-1.9-1.9-3.9-2.9-5.8c-1.2-2.3-3.9-4.5-6.9-4.6
		c-3.6,0-7.2,0.2-10.7,0.4l-1.9,0.1c-3.2,0.2-4.7,2-5.4,3c-0.4,0.6-0.8,1.7-0.8,3.1c-5-3.8-11.1-5.5-17.5-4.7
		c-2.2,0.3-4.5,0.4-6.9,0.6l-1,0.1c-4.9,0.3-9.8,0.6-14.7,0.9c-2.8,0.2-4.4,1.4-5.3,2.4c-1.3,1.5-1.8,3.5-1.6,5.9
		c0.2,1.9,0.4,3.8,0.5,6c-5.4-8.5-13.9-12.8-24.6-12.3c-5.7,0.2-11.4,0.7-16.9,1.2c-3.3,0.3-6.7,0.6-10,0.8c-2.2,0.1-3.9,1-5.1,2.4
		c-1.9,2.2-1.6,4.8-1.5,5.6c0.3,3.6,0.7,7.2,0.9,10.8c0.6,8.1,1.1,16.3,1.7,24.4c-3.7-11.5-7.3-23.1-10.9-34.6
		c-2.4-7.7-7.2-8-10.2-7.3l-5.9,0.4c-5.2,0.4-10.2,0.8-15.3,1.1c-3.9,0.3-6.3,2.7-7,7.1c-1.2,7.7-2.4,15.3-3.7,23l-0.7,4.6
		c-0.4,2.5-0.8,5-1.2,7.4c-0.6-6.9-1.9-12.7-4.2-18.2c-5.5-13.3-17.4-21-31.5-20.5c-7.1,0.3-14.3,0.7-21.2,1.1l-1.4,0.1
		c-5.9,0.3-11.8,0.7-17.7,1.1l-9.1,0.6c-1.1,0.1-4,0.3-6,2.6c-0.9,1-1.9,2.9-1.6,5.7c0.7,7.2,1.2,13.7,1.7,19.8
		c0.2,2.2,1,3.9,2.4,5.1c1.4,1.2,3.2,1.7,5.4,1.5c1.3-0.1,2.5-0.2,3.8-0.3c0.8-0.1,1.7-0.1,2.5-0.2c0.8,10,1.6,20.1,2.4,30.1
		c0.5,6.4,1,12.8,1.6,19.2c0.1,1.1,0.3,3.8,2.6,5.6c0.8,0.7,2.2,1.4,4.2,1.4c0.4,0,0.8,0,1.2-0.1c4.7-0.7,9.4-1.3,14.2-1.9
		c7.4-1,15-2,22.5-3.2c10-1.5,17.8-6.8,22.7-15.2c-0.2,1-0.3,2-0.5,3c-0.5,2.7,0.1,4.9,1.6,6.5c1.5,1.6,3.4,1.9,4.8,1.9
		c0.7,0,1.3-0.1,1.7-0.1c2-0.3,3.9-0.5,5.9-0.8c3.1-0.4,6.3-0.8,9.5-1.3c2.8-0.5,5.6-3,6.2-5.8c0.4-1.8,0.7-3.5,1-5.2
		c0.2-1.2,0.4-2.4,0.6-3.5c2.5-0.4,5.1-0.7,8-0.9c0.7,1.8,1.3,3.8,2,6.3c1.1,3.9,4.3,6.1,8.4,5.5c5.1-0.7,10.3-1.4,15.5-2
		c1.3-0.2,2.3-0.6,3.1-1c0.6,0.1,1.3,0.2,2,0.2c1,0,2-0.1,3.1-0.3c3.8-0.5,7.6-1,11.4-1.5c4.3-0.6,8.7-1.2,13-1.7
		c9.6-1.1,16.7-5.8,21.1-13.9c0.5-0.9,0.9-1.7,1.2-2.6c0.1,1.5,0.2,3,0.3,4.6c0.1,1,0.3,4.1,2.8,6.2c1.5,1.2,3.2,1.5,4.7,1.5
		c0.7,0,1.4-0.1,2-0.2c7.5-1.2,15-2.2,22.4-3.2c10.3-1.3,17.5-7.3,20.4-16.9c1.3-4.4,2.1-9,2.7-13.1c0.3-1.6,0.5-3.2,0.8-4.7
		l0.1-0.8l-0.1-0.8c-0.3-1.9-0.5-3.7-0.7-5.4c-0.2-1.8-0.4-3.6-0.7-5.3c2.1,4.1,4.1,8.2,6.1,12.2c0.8,1.7,1.4,3.9,1.7,6.7
		c0.4,4,0.7,8.2,0.9,12.3l0.2,3.8c0.2,2.9,1.4,4.5,2.5,5.3c0.9,0.7,2.2,1.4,4.3,1.4c0.4,0,0.9,0,1.3-0.1l1.1-0.2
		c2.5-0.4,4.8-0.7,7.1-1c4.2-0.4,6.8-3.4,6.5-7.7c-0.2-2.5-0.4-5.8-0.5-9.1c0-1.3-0.1-2.7-0.2-4c-0.2-2.9-0.4-5.6,0.1-7.9
		c0.8-3.7,2.1-7.3,3.6-11.2c0.6-1.7,1.3-3.4,1.9-5.1c0-0.1,0.1-0.3,0.1-0.4l0,0.3l6.4-2.8c0.5-0.2,0.9-0.4,1.3-0.6
		c0.4-0.2,0.8-0.4,1.1-0.5c0.5-0.2,1-0.4,1.6-0.5c0,0,0.1,0,0.1,0c-2.8,4.2-4.1,9.2-4.2,15.2c0,1.4-0.1,4.7,2.8,6.3
		c-1.9,1.5-2.6,4-2.4,8.2c0,0.7,0,1.5,0,2.2l0,6.1h0.4c0,0.2,0,0.5,0,0.7c-0.1,3.1,1.2,4.9,2.3,5.9c1.2,1.1,2.8,1.6,4.6,1.6
		c0.5,0,1.1,0,1.6-0.1l1.5-0.3c1.6-0.3,3.1-0.5,4.7-0.7c4.2-0.5,6.7-3.5,6.4-7.8c-0.2-2.4-0.3-4.8-0.4-7.2l-0.1-1.8
		c-0.1-3.3-0.2-6-2.5-7.9c-0.1-0.1-0.2-0.2-0.3-0.2c0.5-0.6,0.9-1.2,1.2-2C407.5,458.8,408,457.4,408.5,456.1z M133.4,493.5
		c-0.6,0-1.2,0-1.9,0.1c-0.5-6.8-1-13.7-1.5-20.8l-0.6-8.6c0-0.1,0-0.2,0-0.3c0.4-0.1,0.9-0.1,1.3-0.2c0.8-0.1,1.7-0.2,2.5-0.2
		c6.4-0.3,9.2,2.1,9.9,8.3c0.6,5.4,0.7,9.9,0.4,14c-0.5,5.2-2.7,7.3-8.3,7.7C134.5,493.5,134,493.5,133.4,493.5z M313.4,472.3
		c0-0.4-0.1-0.8-0.1-1.2c-0.4-4.7-0.7-9.4-1-14.2l-0.3-5.1v-0.6c0.2-1,0.1-2,0-2.8c2.3-0.3,4.2,0.4,4.7,1.4c1.3,2.5,1.9,4.6,2,6.3
		c0.3,4.8,0.1,9.3-0.5,13.3c-0.2,1.3-0.3,2.2-3.5,2.6C314.2,472.2,313.8,472.3,313.4,472.3z M258.7,478.8c-0.2,0-0.5,0.1-0.7,0.1
		c-0.3-5-0.7-10-1.1-15l-0.1-1.9l0.1,0l-0.4-4.8c0-0.6-0.1-1.1-0.1-1.7c0-0.6-0.1-1.3-0.1-2c3.2-0.4,5.1-0.3,6.1,0.4
		c0.9,0.6,2.1,2.5,2.8,7.9c0.5,3.4,0.5,7.4-0.1,11.8c-0.4,3.5-0.9,4.2-5.2,4.9C259.4,478.7,259.1,478.7,258.7,478.8z"/>
</g>
<path id="XMLID_2379_" d="M171.1,482.3c-0.1,4.2-0.6,10.9-3,17.2c-3.9,9.9-11,15.8-21.5,17.4c-12.2,1.8-24.4,3.4-36.6,5.1
	c-2.1,0.3-2.3-1-2.4-2.4c-0.6-6.4-1.1-12.7-1.6-19.1c-0.9-10.9-1.7-21.9-2.6-32.8c-0.1-1.9-1.1-2.2-2.8-2.1
	c-2.9,0.3-5.8,0.4-8.7,0.7c-1.6,0.2-2.3-0.4-2.4-2.1c-0.5-6.6-1.1-13.3-1.7-19.9c-0.2-2.4,1.2-2.8,3-2.9c8.9-0.6,17.9-1.2,26.8-1.7
	c7.5-0.4,15-0.9,22.5-1.2c12.2-0.4,22.1,6.1,26.8,17.5C170.1,463.6,171.2,471.6,171.1,482.3z M124.6,464.6c0.8,11,1.6,21.2,2.3,31.4
	c0.1,2.1,0.7,3.2,3.1,2.7c1.8-0.4,3.6-0.2,5.5-0.3c7.8-0.5,12.2-4.3,12.9-12.2c0.4-4.9,0.2-10-0.4-15c-1-8.8-6.1-13-14.9-12.7
	c-1,0-2,0.1-3,0.3C124.3,459.7,124.3,459.7,124.6,464.6z"/>
<path id="XMLID_2376_" class="st1" d="M156.5,327.7c-0.9,4.5-1.8,9.1-2.7,13.6c-1,5.3-2.2,10.6-3.1,15.9c-0.3,1.9-1.1,2.8-3,2.8
	c-3.2,0.1-6.4,0.1-9.6,0.3c-2.6,0.2-3.5-1.2-4-3.4c-1.1-4.7-2.3-9.4-3.5-14.1c-0.2-0.8-0.7-1.6-1.3-3c-1.4,6.4-2.7,12-3.7,17.7
	c-0.4,2.1-1.3,3.1-3.3,3.2c-3.7,0.1-7.5,0.4-11.2,0.2c-0.9,0-2.1-1.4-2.4-2.3c-3.1-10.2-6.1-20.5-9.1-30.7c-0.2-0.8-0.6-1.6-0.7-2.4
	c-0.3-2.3-1.7-3-3.9-2.8c-1.6,0.1-3.3,0-4.9,0c-1.6,0-2.3-0.7-2.3-2.3c0-4.1,0-8.2,0-12.3c0-1.6,0.8-2,2.3-2
	c5.8,0.1,11.5,0.2,17.3,0.2c2.5,0,3.5,1.5,4.1,3.6c1.3,4.9,2.7,9.9,4.1,14.8c0.2,0.8,0.7,1.6,1,2.4c0.3,0,0.5,0,0.8,0
	c0.6-2.2,1.2-4.5,1.7-6.7c0.9-3.6,1.7-7.3,2.5-11c0.4-1.9,1.3-2.8,3.4-2.7c2.8,0.1,5.7,0.2,8.5,0.1c1.9-0.1,2.8,0.7,3.3,2.5
	c1.4,5.2,2.9,10.4,4.4,15.6c0.3,0.9,0.6,1.9,1.6,2.8c0.7-4.1,1.5-8.2,2.2-12.4c0.3-1.8,0.7-3.6,0.8-5.4c0.2-1.9,1.1-2.4,2.9-2.4
	c6.9,0.2,13.9,0.4,20.8,0.6c1.9,0,2.5,0.9,2.5,2.8c-0.1,3.9,0.1,7.9-0.1,11.8c-0.1,2.5,0.8,3.3,3.2,3c1.2-0.2,2.4-0.1,3.6-0.1
	c3.8,0,3.9,0,3.8-4c-0.1-3.5-0.1-7-0.2-10.4c-0.1-1.7,0.6-2.6,2.4-2.5c3,0.1,6,0.1,9.1,0.1c1.7,0,2.5,0.6,2.5,2.4
	c0,15,0.1,30,0.2,45c0,2.2-0.9,3-2.9,3c-2.7,0-5.3,0-8,0.2c-2.3,0.1-3-0.9-3-3.1c0.1-4.1,0-8.2,0-12.3c0-1.9-0.6-2.7-2.7-2.7
	c-7.8,0-7.8-0.1-7.7,7.7c0,2.7,0,5.5,0.1,8.2c0.1,2-0.7,2.8-2.7,2.8c-2.9-0.1-5.9-0.1-8.8,0.1c-2.2,0.1-3-0.5-3-2.9
	c0.1-8.3,0-16.6-0.1-25c0-1.4-0.1-2.7-0.2-4.1C157,327.8,156.7,327.8,156.5,327.7z"/>
<path id="XMLID_2373_" d="M210.2,433.5c2.7-0.8,3.8,0.9,4.7,3.9c6.6,21.1,13.4,42.1,20.1,63.2c0.2,0.7,0.3,1.4,0.6,2.1
	c0.6,1.5,0.1,2.2-1.5,2.4c-5.2,0.7-10.3,1.3-15.5,2.1c-1.6,0.2-2.5-0.4-3-2c-0.8-2.8-1.7-5.6-2.8-8.3c-0.3-0.8-1.5-1.7-2.3-1.7
	c-4.1,0.3-8.2,0.7-12.2,1.4c-0.8,0.1-1.8,1.6-2.1,2.7c-0.7,3.1-1,6.3-1.8,9.4c-0.2,0.9-1.4,2-2.3,2.1c-5,0.8-10.1,1.4-15.2,2.1
	c-2.2,0.3-3-0.2-2.6-2.6c2.8-16.4,5.4-32.8,8.1-49.2c1.2-7.7,2.5-15.3,3.7-23c0.2-1.6,0.5-2.9,2.4-3
	C195.6,434.6,202.6,434.1,210.2,433.5z M202.3,454.1c-0.4,0-0.7,0-1.1,0c-1.6,8.8-3.2,17.7-4.9,27c4.2-0.4,7.9-0.9,11.6-1.2
	c2.3-0.2,2.5-1.1,1.8-3.1c-1.1-3.2-2-6.4-3.1-9.6C205.2,462.8,203.7,458.4,202.3,454.1z"/>
<path id="XMLID_2367_" d="M288.4,465c0,9.7-0.6,17.5-4.4,24.5c-3.7,6.8-9.6,10.5-17.4,11.3c-8.2,0.9-16.3,2.2-24.4,3.2
	c-4.4,0.5-4.5,0.4-4.8-4.2c-1.2-18-2.5-36.1-3.7-54.1c-0.3-3.6-0.6-7.3-0.9-10.9c-0.1-1.6,0.2-2.6,2.1-2.7c8.9-0.6,17.8-1.6,26.8-2
	c11-0.5,18.9,4.9,22.8,15.3c1,2.7,2.1,5.5,2.6,8.4C287.9,458.1,288.1,462.5,288.4,465z M251.6,457.6
	C251.6,457.6,251.6,457.6,251.6,457.6c0.5,8,1.2,16,1.7,24c0.1,2.4,1.1,3,3.3,2.5c1.3-0.3,2.7-0.4,4.1-0.6c6.1-0.9,8.6-3,9.3-9.1
	c0.5-4.3,0.7-8.8,0.1-13.1c-1.7-12.4-6.3-14-16.3-12.2c-0.1,0-0.2,0-0.3,0c-1.8,0.1-2.6,0.8-2.3,2.8
	C251.5,453.8,251.5,455.7,251.6,457.6z"/>
<path id="XMLID_2364_" d="M340.7,462.6c-1,5.2-1.6,11.4-3.3,17.3c-2.4,7.8-8,12.3-16.3,13.4c-7.5,1-15,2-22.5,3.2
	c-2.6,0.4-3.6-0.2-3.8-3c-1-17.1-2.2-34.1-3.4-51.2c-0.3-3.7-0.5-7.5-0.9-11.2c-0.2-1.8,0.3-2.8,2.3-2.9c4.9-0.3,9.8-0.6,14.8-0.9
	c2.7-0.2,5.5-0.3,8.2-0.7c7-0.9,13,1.9,17.2,6.8c3,3.4,4.3,8.4,5.5,13C339.6,451.3,339.9,456.5,340.7,462.6z M307.1,451
	C307.1,451,307.1,451,307.1,451c0.4,6.8,0.8,13.7,1.4,20.5c0.5,6.2,0.6,6.2,6.8,5.5c4.4-0.5,7.2-2.4,7.8-6.7
	c0.7-4.7,0.9-9.6,0.6-14.4c-0.2-2.8-1.3-5.7-2.6-8.3c-1.9-3.8-7.5-5.3-12.9-3.3c-3,1.1-0.4,4.2-1,6.3
	C307.1,450.9,307.1,451,307.1,451z"/>
<path id="XMLID_2356_" class="st2" d="M146.7,399.9c0.7-3.8,1-7.6,2.1-11.3c2.8-9.1,9.3-14.3,18.5-15.9c9.1-1.5,17.6-0.5,23.8,7.5
	c3.8,4.9,4.8,10.8,4.7,16.8c-0.1,7.9-1.6,15.4-7.6,21.3c-7.7,7.5-27.1,10.7-35.8-0.1C148,412.9,147,406.6,146.7,399.9z M181,398.3
	c-0.2-1.3-0.3-3.4-0.9-5.4c-1.7-5.4-5.7-7.4-11-5.5c-3,1.1-4.7,3.3-5.5,6.3c-1.3,4.7-0.8,9.3,1.1,13.6c0.5,1.2,1.8,2.5,3,2.9
	c4.7,1.6,11.7,0.4,12.9-7.1C180.8,401.8,180.8,400.4,181,398.3z"/>
<path id="XMLID_2345_" class="st1" d="M243,334c0.3,5.6-0.4,10.5-3,15c-4.3,7.4-13.6,11.5-22.4,9.9c-10.4-2-15.5-6.9-17.7-17.4
	c-1.3-6.2-1.1-12.4,0.7-18.5c3.3-10.7,12.4-15.3,22.8-14.1c12.1,1.4,19,9.2,19.5,21.5C243.1,331.8,243,333.1,243,334z M230.1,334.3
	c-0.4-2.1-0.8-4.3-1.4-6.5c-1.2-3.7-3.2-5.1-7.1-5.1c-3.6,0-6,1.7-7.2,5.2c-1.3,3.9-1,7.7-0.1,11.6c0.9,3.8,3.3,6,6.9,6.2
	c3.6,0.2,6.8-2.1,7.8-5.6C229.5,338.3,229.7,336.4,230.1,334.3z"/>
<path id="XMLID_2342_" class="st2" d="M121.3,390.8c2.8-5.1,5.3-9.5,7.7-14c0.9-1.7,2-2.4,3.8-2.5c4.8-0.2,9.6-0.5,15.3-0.9
	c-0.9,2-1.5,3.5-2.2,4.8c-5.1,9.3-10.4,18.5-15.5,27.8c-0.9,1.7-1.4,3.8-1.5,5.7c-0.2,4.6,0,9.1,0.1,13.7c0,1.7-0.5,2.5-2.3,2.6
	c-3.5,0.2-6.9,0.6-10.4,1c-2.1,0.2-3-0.6-2.9-2.8c0.1-4.5,0.1-9-0.1-13.4c-0.1-1.9-0.6-4-1.5-5.7c-2.7-4.6-5.6-9-8.6-13.4
	c-0.6-0.9-2.2-1.6-3.3-1.6c-7.9,0-7.8,0-7.9-7.9c0-2,0-4-0.1-6c-0.1-1.7,0.6-2.6,2.3-2.6c5.1-0.1,10.2-0.4,15.4-0.3
	c1,0,2.4,0.9,3,1.8c2.2,3.3,4.2,6.8,6.3,10.3C119.5,388.5,120.3,389.4,121.3,390.8z"/>
<path id="XMLID_2334_" class="st2" d="M253.5,403c0,3.2,0,6.5,0,9.7c0,3.7-0.1,3.8-3.8,4.1c-2.3,0.2-4.6,0.3-6.8,0.8
	c-2.1,0.4-2.8-0.3-2.8-2.3c0-4.8-0.1-9.7-0.1-14.5c0-9.2,0-18.5-0.1-27.7c0-2.6,0.9-3.5,3.5-3.6c6.3-0.1,12.6-0.5,18.9-0.8
	c5.3-0.2,10.8,4.1,12,9.5c1.8,8.1-0.4,13.6-7.3,18.3c-0.5,0.3-0.9,1.6-0.7,1.9c1,1,2.1,2.4,3.3,2.5c1.9,0.3,4-0.3,6-0.5
	c1.7-0.2,2.5,0.5,2.4,2.3c-0.1,3,0,6,0.1,9c0.1,1.7-0.7,2.6-2.3,2.7c-0.3,0-0.5,0.1-0.8,0.1c-3.7,0.1-7.9,1.4-10.9,0
	c-3-1.4-4.6-5.4-6.9-8.3c-0.9-1.2-1.9-2.3-2.8-3.5C254,402.9,253.8,402.9,253.5,403z M258,381.2c-1.7,0.3-4.6-1.2-4.6,3
	c0,5.7-0.1,5.7,5.7,5.2c0.8-0.1,1.8,0,2.4-0.4c1.1-0.9,2.6-2,2.7-3.2C264.6,382.9,264,380.5,258,381.2z"/>
<path id="XMLID_2333_" d="M362.1,442.6c1.7-5.2,3.3-9.6,4.7-14.1c1.5-5.1,1.5-5.2,6.8-5.7c2.5-0.2,4.9-0.2,7.4-0.4
	c2.1-0.2,2.7,0.7,2,2.6c-2.3,6.7-4.6,13.5-6.9,20.2c-1.9,5.6-4.4,11.1-5.6,16.9c-0.9,4.2-0.1,8.7,0.1,13.1c0.1,3.1,0.3,6.2,0.5,9.3
	c0.1,1.6-0.5,2.3-2.1,2.5c-2.8,0.3-5.6,0.7-8.4,1.1c-1.7,0.2-2.3-0.5-2.4-2.1c-0.3-5.5-0.5-11-1.1-16.4c-0.3-2.8-0.9-5.8-2.2-8.3
	c-5.2-10.6-10.7-21-16-31.5c-0.4-0.7-0.7-1.5-1.1-2.2c-0.6-1.4-0.1-2.2,1.3-2.2c4.1-0.2,8.2-0.5,12.3-0.5c0.9,0,2.1,1,2.5,1.9
	c2.2,4.1,4.1,8.4,6.1,12.5C360.5,440.2,361.1,441,362.1,442.6z"/>
<path id="XMLID_2330_" class="st2" d="M198.1,389.4c0-5,0.1-10.1,0-15.1c-0.1-2.3,0.8-3.1,3-3.1c2.4,0.1,4.8,0,7.1-0.3
	c2.4-0.3,3.1,0.6,3.1,2.9c0,8.2,0.1,16.5,0.1,24.7c0,1.2,0,2.4,0.1,3.6c0.2,4,2,6.1,5.4,6.2c4.1,0,6.9-2.4,6.9-6.5
	c0.1-9,0.1-17.9,0-26.9c0-4.3-0.1-4.4,4.3-4.5c2-0.1,4,0,6-0.1c1.7-0.1,2.3,0.7,2.3,2.3c-0.1,9.8,0.5,19.6-0.2,29.3
	c-1.4,18.5-19.9,22.3-30.8,16c-5.2-3-7-8.5-7.3-14.3c-0.2-4.7,0-9.5,0-14.3C198.2,389.4,198.1,389.4,198.1,389.4z"/>
<path id="XMLID_2327_" class="st1" d="M265.2,357.3c-3.8,0-7.7-0.1-11.5,0c-2,0.1-2.5-0.7-2.5-2.5c0.1-2.9,0-5.9-0.2-8.8
	c-0.1-2,0.7-2.9,2.6-3c3.7-0.1,7.5-0.2,11.2-0.3c1.9,0,3.9,0.1,5.7-0.1c1.1-0.1,2.1-0.8,3.1-1.2c-0.4-1-0.7-2-1.3-2.8
	c-3-4.1-5.9-8.1-7.2-13.1c-0.9-3.5-0.6-6.9,0.7-10.2c1.2-2.9,3.3-4.9,6.7-4.8c6.3,0.2,12.6,0.5,18.9,0.7c1.6,0.1,2.3,0.9,2.2,2.5
	c-0.1,2.8-0.1,5.7,0,8.5c0,1.9-0.8,2.6-2.6,2.6c-2.9-0.1-5.8-0.2-8.8,0c-2.5,0.1-2.9,1.1-1.4,3.1c3.7,4.9,7.2,9.9,8,16.3
	c0.4,3.5-0.2,6.9-2.5,9.5c-1.2,1.3-3.1,2.5-4.8,2.7c-5.4,0.7-10.9,0.9-16.4,1.2C265.2,357.4,265.2,357.4,265.2,357.3z"/>
<path id="XMLID_2325_" d="M385.2,439.3c-0.3-4.9-0.7-9-0.9-13.2c0-0.7,0.5-1.9,1.2-2.2c4.3-2.6,8.9-4.3,14-3.2
	c6.5,1.4,10.3,6,10.8,12.7c0.4,5-1,9.5-3.3,13.9c-1.9,3.5-3,7.3-4.6,11c-1.2,2.9-4.1,1.8-6.2,2.2c-1.2,0.3-2.8-0.5-4.1-1.1
	c-0.3-0.2-0.3-1.4-0.3-2.1c0.1-4.9,1.2-9.4,4.1-13.4c0.5-0.7,0.9-1.4,1.2-2.1c1.3-3.4-0.1-5.5-3.7-5.3c-1.9,0.1-3.7,1-5.5,1.6
	C387.3,438.3,386.5,438.7,385.2,439.3z"/>
<path id="XMLID_2302_" d="M392.3,475.1c0-1.2,0-2.4,0-3.6c-0.2-4.6-0.2-4.6,4.5-5.2c7.4-1,6.6-1.5,6.9,6c0.1,2.5,0.2,4.9,0.4,7.4
	c0.1,1.5-0.4,2.4-2,2.6c-2.2,0.2-4.3,0.6-6.5,1c-1.9,0.3-2.9-0.3-2.9-2.4c0.1-1.9-0.2-3.8-0.3-5.7
	C392.4,475.1,392.4,475.1,392.3,475.1z"/>
<path id="XMLID_2280_" class="st1" d="M249.8,330.6c-0.3-1.2-0.5-1.6-0.5-2c0-5.4,0-10.7,0-16.1c0-1.8,0.5-2.6,2.5-2.6
	c6.3,0.1,5-0.3,5.6,5.4C258,322,253.2,325.5,249.8,330.6z"/>
</svg>
