<svg id="Layer_1" data-name="Layer 1" xmlns="http://www.w3.org/2000/svg" viewBox="0 0 57.2 89.97"><title>ironman</title><path d="M68.86,61.39a48.21,48.21,0,0,1-20.47,5.1,48.21,48.21,0,0,1-20.46-5.1L26.14,65.1s2.45,4.1,6,4.64a68.6,68.6,0,0,0,9.44.4l1-2a42.19,42.19,0,0,0,5.81.46h0a42,42,0,0,0,5.81-.46l1,2a68.6,68.6,0,0,0,9.44-.4c3.55-.54,6-4.64,6-4.64ZM40.93,69s-7.75-.31-9.51-1.36a20.69,20.69,0,0,1-3-2.15l.82-1.65a38.16,38.16,0,0,0,12.53,3.56Zm24.44-1.36c-1.77,1-9.52,1.36-9.52,1.36L55,67.44a38,38,0,0,0,12.52-3.56l.82,1.65A20.91,20.91,0,0,1,65.37,67.68Z" transform="translate(-19.8 -17.01)"/><path d="M76.12,49.35s-1-15.83-1.94-17.28-1.69-5.52-1.69-5.52A34.63,34.63,0,0,0,48.4,17h0A34.68,34.68,0,0,0,24.3,26.55s-.76,4.07-1.69,5.52-1.94,17.28-1.94,17.28l-.87,1.16V68.8l1.74,2.66s1.3,9.54,2.61,13.6,8.71,17.76,18,21.59c0,0,3.34.34,6.24.34h0c2.9,0,6.24-.34,6.24-.34,9.29-3.83,16.69-17.52,18-21.59s2.61-13.6,2.61-13.6L77,68.8V50.51ZM58.77,102.68l-3.22-2-7.16.1-7.15-.1-3.23,2a34.18,34.18,0,0,1-5.77-6l.86-2.78,3.34,3.91L39.78,95l8.61-.19L57,95l3.34,2.83,3.35-3.91.86,2.78A34,34,0,0,1,58.77,102.68ZM71.23,74.84C69.78,77.45,63.2,88,63.39,93L61,95.83l-2.6-2.3-10-.19h0l-10,.19-2.6,2.3L33.4,93c.19-5-6.39-15.54-7.84-18.15a22.22,22.22,0,0,1-2.62-8c0-1.55,2.43-10,2.43-10l-1-23.23C27.68,26.16,38.81,25,38.81,25S41,41.74,41.61,44.75s1.56,3.09,6.78,3.09h0c5.23,0,6.2-.1,6.78-3.09S58,25,58,25s11.14,1.16,14.42,8.61l-1,23.23s2.42,8.42,2.42,10A22.43,22.43,0,0,1,71.23,74.84Z" transform="translate(-19.8 -17.01)"/></svg>