<?xml version="1.0" encoding="utf-8"?>
<!-- Generator: Adobe Illustrator 23.0.1, SVG Export Plug-In . SVG Version: 6.00 Build 0)  -->
<svg version="1.1" id="Layer_1" xmlns="http://www.w3.org/2000/svg" xmlns:xlink="http://www.w3.org/1999/xlink" x="0px" y="0px"
	 viewBox="0 0 160 160" style="enable-background:new 0 0 160 160;" xml:space="preserve">
<style type="text/css">
	.st0{clip-path:url(#SVGID_2_);enable-background:new    ;}
	.st1{clip-path:url(#SVGID_4_);}
	.st2{clip-path:url(#SVGID_6_);}
	.st3{opacity:9.600000e-02;clip-path:url(#SVGID_8_);enable-background:new    ;}
	.st4{clip-path:url(#SVGID_10_);}
	.st5{clip-path:url(#SVGID_12_);}
	.st6{clip-path:url(#SVGID_8_);}
	.st7{clip-path:url(#SVGID_18_);fill:#0B0B0B;}
	.st8{clip-path:url(#SVGID_22_);enable-background:new    ;}
	.st9{clip-path:url(#SVGID_24_);}
	.st10{clip-path:url(#SVGID_26_);}
	.st11{clip-path:url(#SVGID_28_);fill:#FFFFFF;}
	.st12{clip-path:url(#SVGID_30_);}
	.st13{clip-path:url(#SVGID_32_);fill:#FFFFFF;}
	.st14{clip-path:url(#SVGID_34_);}
	.st15{clip-path:url(#SVGID_36_);fill:#FFFFFF;}
	.st16{clip-path:url(#SVGID_38_);enable-background:new    ;}
	.st17{clip-path:url(#SVGID_40_);}
	.st18{clip-path:url(#SVGID_42_);}
	.st19{clip-path:url(#SVGID_44_);fill:#FFFFFF;}
	.st20{clip-path:url(#SVGID_46_);enable-background:new    ;}
	.st21{clip-path:url(#SVGID_48_);}
	.st22{clip-path:url(#SVGID_50_);}
	.st23{clip-path:url(#SVGID_52_);fill:#FFFFFF;}
	.st24{clip-path:url(#SVGID_54_);fill:none;stroke:#FFFFFF;stroke-width:2;stroke-linecap:square;stroke-miterlimit:10;}
	.st25{clip-path:url(#SVGID_56_);fill:#FFFFFF;}
	.st26{clip-path:url(#SVGID_58_);fill:none;stroke:#FFFFFF;stroke-width:3.7872;stroke-miterlimit:10;}
	.st27{clip-path:url(#SVGID_60_);}
	.st28{clip-path:url(#SVGID_60_);fill:none;stroke:#E10613;stroke-width:4;stroke-miterlimit:10;}
	.st29{clip-path:url(#SVGID_62_);}
	.st30{clip-path:url(#SVGID_64_);fill:#FFFFFF;}
	.st31{clip-path:url(#SVGID_66_);fill:none;stroke:#FFFFFF;stroke-width:1.8936;stroke-linecap:square;stroke-miterlimit:10;}
	.st32{clip-path:url(#SVGID_68_);fill:#FFFFFF;}
	.st33{clip-path:url(#SVGID_70_);fill:none;stroke:#FFFFFF;stroke-width:3.7872;stroke-miterlimit:10;}
	.st34{clip-path:url(#SVGID_74_);}
	.st35{clip-path:url(#SVGID_76_);fill:#FFFFFF;}
	.st36{clip-path:url(#SVGID_78_);fill:none;stroke:#FFFFFF;stroke-width:1.8936;stroke-linecap:square;stroke-miterlimit:10;}
	.st37{clip-path:url(#SVGID_80_);fill:#FFFFFF;}
	.st38{clip-path:url(#SVGID_82_);fill:none;stroke:#FFFFFF;stroke-width:3.7872;stroke-miterlimit:10;}
	.st39{clip-path:url(#SVGID_86_);}
	.st40{clip-path:url(#SVGID_88_);fill:#FFFFFF;}
	.st41{clip-path:url(#SVGID_90_);fill:none;stroke:#FFFFFF;stroke-width:1.8936;stroke-linecap:square;stroke-miterlimit:10;}
	.st42{clip-path:url(#SVGID_92_);fill:#FFFFFF;}
	.st43{clip-path:url(#SVGID_94_);fill:none;stroke:#FFFFFF;stroke-width:3.7872;stroke-miterlimit:10;}
	.st44{clip-path:url(#SVGID_96_);enable-background:new    ;}
	.st45{clip-path:url(#SVGID_98_);}
	.st46{clip-path:url(#SVGID_100_);fill:#F50000;}
	.st47{opacity:0.1;clip-path:url(#SVGID_102_);enable-background:new    ;}
	.st48{clip-path:url(#SVGID_104_);}
	.st49{clip-path:url(#SVGID_106_);}
	.st50{clip-path:url(#SVGID_110_);fill:none;stroke:#FFFFFF;stroke-width:2;stroke-linecap:square;stroke-miterlimit:10;}
	.st51{clip-path:url(#SVGID_112_);fill:none;stroke:#FFFFFF;stroke-width:8;stroke-miterlimit:10;}
	.st52{clip-path:url(#SVGID_116_);fill:#FCFCFC;}
	.st53{clip-path:url(#SVGID_118_);}
	.st54{clip-path:url(#SVGID_120_);fill:#FCFCFC;}
	.st55{clip-path:url(#SVGID_122_);}
	.st56{clip-path:url(#SVGID_124_);fill:#FCFCFC;}
	.st57{clip-path:url(#SVGID_126_);}
	.st58{clip-path:url(#SVGID_128_);fill:#FCFCFC;}
	.st59{clip-path:url(#SVGID_130_);}
	.st60{clip-path:url(#SVGID_132_);fill:#FCFCFC;}
	.st61{clip-path:url(#SVGID_134_);}
	.st62{clip-path:url(#SVGID_136_);fill:#FCFCFC;}
	.st63{clip-path:url(#SVGID_138_);enable-background:new    ;}
	.st64{clip-path:url(#SVGID_140_);}
	.st65{clip-path:url(#SVGID_142_);}
	.st66{clip-path:url(#SVGID_144_);fill:#FCFCFC;}
	.st67{clip-path:url(#SVGID_146_);}
	.st68{clip-path:url(#SVGID_148_);fill:#FCFCFC;}
	.st69{clip-path:url(#SVGID_150_);}
	.st70{clip-path:url(#SVGID_152_);fill:#FCFCFC;}
	.st71{clip-path:url(#SVGID_154_);fill:#FCFCFC;}
	.st72{clip-path:url(#SVGID_156_);}
	.st73{clip-path:url(#SVGID_158_);fill:#FCFCFC;}
	.st74{clip-path:url(#SVGID_160_);}
	.st75{clip-path:url(#SVGID_162_);fill:#FCFCFC;}
	.st76{clip-path:url(#SVGID_164_);}
	.st77{clip-path:url(#SVGID_166_);fill:#FCFCFC;}
	.st78{clip-path:url(#SVGID_168_);}
	.st79{clip-path:url(#SVGID_170_);fill:#FCFCFC;}
	.st80{clip-path:url(#SVGID_172_);}
	.st81{clip-path:url(#SVGID_174_);fill:#FCFCFC;}
	.st82{clip-path:url(#SVGID_176_);enable-background:new    ;}
	.st83{clip-path:url(#SVGID_178_);}
	.st84{clip-path:url(#SVGID_180_);}
	.st85{clip-path:url(#SVGID_182_);fill:#FCFCFC;}
	.st86{clip-path:url(#SVGID_184_);}
	.st87{clip-path:url(#SVGID_186_);fill:#FCFCFC;}
	.st88{clip-path:url(#SVGID_188_);}
	.st89{clip-path:url(#SVGID_190_);fill:#FCFCFC;}
	.st90{clip-path:url(#SVGID_194_);}
	.st91{clip-path:url(#SVGID_196_);fill:#FFFFFF;}
	.st92{clip-path:url(#SVGID_198_);}
	.st93{clip-path:url(#SVGID_200_);fill:#FFFFFF;}
	.st94{clip-path:url(#SVGID_202_);}
	.st95{clip-path:url(#SVGID_204_);fill:#FFFFFF;}
	.st96{clip-path:url(#SVGID_206_);}
	.st97{clip-path:url(#SVGID_208_);fill:#FFFFFF;}
	.st98{clip-path:url(#SVGID_210_);}
	.st99{clip-path:url(#SVGID_212_);fill:#FFFFFF;}
	.st100{clip-path:url(#SVGID_214_);}
	.st101{clip-path:url(#SVGID_216_);fill:#FFFFFF;}
	.st102{clip-path:url(#SVGID_218_);}
	.st103{clip-path:url(#SVGID_220_);fill:#FFFFFF;}
</style>
<g>
	<defs>
		<rect id="SVGID_153_" x="78.8" y="11.4" width="2.3" height="31.8"/>
	</defs>
	<clipPath id="SVGID_2_">
		<use xlink:href="#SVGID_153_"  style="overflow:visible;"/>
	</clipPath>
	<rect x="68.8" y="1.4" style="clip-path:url(#SVGID_2_);fill:#FCFCFC;" width="22.3" height="51.8"/>
</g>
<g>
	<defs>
		<polygon id="SVGID_155_" points="56.8,98.3 55.8,96.2 73.7,88.3 74.6,90.4 		"/>
	</defs>
	<clipPath id="SVGID_4_">
		<use xlink:href="#SVGID_155_"  style="overflow:visible;"/>
	</clipPath>
	<g class="st1">
		<defs>
			<rect id="SVGID_157_" x="-2219.9" y="-116.2" width="2880" height="1212"/>
		</defs>
		<clipPath id="SVGID_6_">
			<use xlink:href="#SVGID_157_"  style="overflow:visible;"/>
		</clipPath>
		<rect x="45.8" y="78.3" style="clip-path:url(#SVGID_6_);fill:#FCFCFC;" width="38.7" height="30"/>
	</g>
</g>
<g>
	<defs>
		<polygon id="SVGID_159_" points="20.1,113.7 19.1,111.6 43.3,100.8 44.3,102.9 		"/>
	</defs>
	<clipPath id="SVGID_8_">
		<use xlink:href="#SVGID_159_"  style="overflow:visible;"/>
	</clipPath>
	<g class="st6">
		<defs>
			<rect id="SVGID_161_" x="-2219.9" y="-116.2" width="2880" height="1212"/>
		</defs>
		<clipPath id="SVGID_10_">
			<use xlink:href="#SVGID_161_"  style="overflow:visible;"/>
		</clipPath>
		<rect x="9.1" y="90.8" style="clip-path:url(#SVGID_10_);fill:#FCFCFC;" width="45.1" height="32.9"/>
	</g>
</g>
<g>
	<defs>
		
			<rect id="SVGID_163_" x="93.7" y="83.5" transform="matrix(0.4023 -0.9155 0.9155 0.4023 -28.7247 142.5655)" width="2.3" height="19.5"/>
	</defs>
	<clipPath id="SVGID_12_">
		<use xlink:href="#SVGID_163_"  style="overflow:visible;"/>
	</clipPath>
	<g class="st5">
		<defs>
			<rect id="SVGID_165_" x="-2219.9" y="-116.2" width="2880" height="1212"/>
		</defs>
		<clipPath id="SVGID_14_">
			<use xlink:href="#SVGID_165_"  style="overflow:visible;"/>
		</clipPath>
		<rect x="75.4" y="78.3" style="clip-path:url(#SVGID_14_);fill:#FCFCFC;" width="38.8" height="30"/>
	</g>
</g>
<g>
	<defs>
		
			<rect id="SVGID_167_" x="127.2" y="94.1" transform="matrix(0.41 -0.9121 0.9121 0.41 -22.0938 180.385)" width="2.3" height="26.3"/>
	</defs>
	<clipPath id="SVGID_16_">
		<use xlink:href="#SVGID_167_"  style="overflow:visible;"/>
	</clipPath>
	<g style="clip-path:url(#SVGID_16_);">
		<defs>
			<rect id="SVGID_169_" x="-2219.9" y="-116.2" width="2880" height="1212"/>
		</defs>
		<clipPath id="SVGID_18_">
			<use xlink:href="#SVGID_169_"  style="overflow:visible;"/>
		</clipPath>
		<rect x="105.9" y="90.8" style="clip-path:url(#SVGID_18_);fill:#FCFCFC;" width="44.9" height="32.9"/>
	</g>
</g>
<g>
	<defs>
		<path id="SVGID_171_" d="M80,149.8c-38.5,0-69.8-31.3-69.8-69.8c0-38.5,31.3-69.8,69.8-69.8c38.5,0,69.8,31.3,69.8,69.8
			C149.8,118.5,118.5,149.8,80,149.8 M80,12.5c-37.2,0-67.5,30.3-67.5,67.5c0,37.2,30.3,67.5,67.5,67.5c37.2,0,67.5-30.3,67.5-67.5
			C147.5,42.8,117.2,12.5,80,12.5"/>
	</defs>
	<clipPath id="SVGID_20_">
		<use xlink:href="#SVGID_171_"  style="overflow:visible;"/>
	</clipPath>
	<g style="clip-path:url(#SVGID_20_);">
		<defs>
			<rect id="SVGID_173_" x="-2219.9" y="-116.2" width="2880" height="1212"/>
		</defs>
		<clipPath id="SVGID_22_">
			<use xlink:href="#SVGID_173_"  style="overflow:visible;"/>
		</clipPath>
		<rect x="0.2" y="0.2" style="clip-path:url(#SVGID_22_);fill:#FCFCFC;" width="159.6" height="159.6"/>
	</g>
</g>
<g>
	<defs>
		<rect id="SVGID_175_" x="0.1" y="0.1" width="159.9" height="159.9"/>
	</defs>
	<clipPath id="SVGID_24_">
		<use xlink:href="#SVGID_175_"  style="overflow:visible;"/>
	</clipPath>
	<g style="clip-path:url(#SVGID_24_);enable-background:new    ;">
		<g>
			<defs>
				<rect id="SVGID_177_" x="0.1" y="-0.2" width="160" height="161"/>
			</defs>
			<clipPath id="SVGID_26_">
				<use xlink:href="#SVGID_177_"  style="overflow:visible;"/>
			</clipPath>
			<g class="st10">
				<defs>
					<path id="SVGID_179_" d="M80,159.9c-44.1,0-79.9-35.9-79.9-79.9C0.1,35.9,35.9,0.1,80,0.1c44.1,0,79.9,35.9,79.9,79.9
						C159.9,124.1,124.1,159.9,80,159.9 M80,4.9C38.6,4.9,5,38.6,5,80c0,41.4,33.7,75.1,75,75.1c41.4,0,75.1-33.7,75.1-75.1
						C155,38.6,121.4,4.9,80,4.9"/>
				</defs>
				<clipPath id="SVGID_28_">
					<use xlink:href="#SVGID_179_"  style="overflow:visible;"/>
				</clipPath>
				<g style="clip-path:url(#SVGID_28_);">
					<defs>
						<rect id="SVGID_181_" x="0.1" y="-0.2" width="160" height="161"/>
					</defs>
					<clipPath id="SVGID_30_">
						<use xlink:href="#SVGID_181_"  style="overflow:visible;"/>
					</clipPath>
					<rect x="-9.9" y="-9.9" style="clip-path:url(#SVGID_30_);fill:#FCFCFC;" width="179.9" height="179.9"/>
				</g>
			</g>
		</g>
	</g>
</g>
<g>
	<defs>
		<path id="SVGID_183_" d="M122.4,118.2l-17.7-55.7c6-1.4,10-3.3,10-5.8v-6.5c0-5.3-17.9-8.1-34.7-8.1c-16.8,0-34.7,2.8-34.7,8.1
			v6.5c0,2.5,4,4.4,10,5.8l-17.7,55.7c-0.5,1.9,0,3.1,0.5,3.8c0.9,1.2,2.7,1.9,4.7,1.9h1.4c2.9,0,4.7-0.6,5.7-3.9l17.7-55.7
			c1.9,0.2,3.9,0.3,5.9,0.4v65.8c0,2,1,4.3,5.8,4.3h1.4c4.8,0,5.7-2.3,5.7-4.3V64.7c2-0.1,4-0.2,5.9-0.4l17.7,55.7
			c1,3.3,2.8,3.9,5.7,3.9h1.4c2.1,0,3.8-0.7,4.7-1.9C122.4,121.3,122.9,120.1,122.4,118.2 M80,43.5c19.7,0,33.3,3.5,33.3,6.7
			S99.6,57,80,57c-19.6,0-33.3-3.5-33.3-6.7S60.4,43.5,80,43.5 M66.2,64.2l-17.6,55.4c-0.7,2.3-1.6,2.9-4.4,2.9h-1.4
			c-1.6,0-3-0.5-3.6-1.4c-0.5-0.7-0.6-1.5-0.3-2.6l17.7-55.8c0.2,0,0.5,0.1,0.7,0.1c0.2,0,0.4,0.1,0.6,0.1
			C60.4,63.6,63.2,63.9,66.2,64.2 M85.1,64.8v65.8c0,1.3-0.5,2.9-4.4,2.9h-1.4c-3.9,0-4.4-1.7-4.4-2.9V64.8l0.6,0c0.5,0,1.1,0,1.6,0
			c0.2,0,0.5,0,0.7,0c0.7,0,1.5,0,2.2,0c0.7,0,1.4,0,2.2,0c0.2,0,0.5,0,0.7,0c0.5,0,1.1,0,1.6,0C84.7,64.8,84.9,64.8,85.1,64.8
			 M86.1,63.4l-0.4,0c-0.9,0-1.8,0.1-2.7,0.1h-0.3c-1.8,0-3.6,0-5.4,0H77c-0.9,0-1.8,0-2.7-0.1l-0.4,0c-2-0.1-3.9-0.2-5.8-0.3v0
			l-0.9-0.1c-4.1-0.4-7.8-0.9-10.9-1.6l-0.6-0.1v0c-5.7-1.3-9-2.9-9-4.5v-4.1c0.1,0.1,0.2,0.1,0.3,0.2c0.1,0,0.1,0.1,0.1,0.1
			c0.2,0.1,0.4,0.3,0.6,0.4c0,0,0.1,0.1,0.1,0.1c0.2,0.1,0.3,0.2,0.5,0.3c0.1,0,0.2,0.1,0.2,0.1c0.2,0.1,0.3,0.1,0.5,0.2
			c0.1,0,0.2,0.1,0.3,0.1c0.2,0.1,0.3,0.1,0.5,0.2c0.1,0,0.2,0.1,0.3,0.1c0.2,0.1,0.4,0.1,0.6,0.2c0.1,0,0.2,0.1,0.3,0.1
			c0.3,0.1,0.6,0.2,0.9,0.3c0.1,0,0.1,0,0.2,0.1c0.2,0.1,0.5,0.2,0.8,0.2c0.1,0,0.2,0.1,0.4,0.1c0.2,0.1,0.4,0.1,0.6,0.2
			c0.1,0,0.3,0.1,0.4,0.1c0.2,0.1,0.4,0.1,0.7,0.2c0.1,0,0.3,0.1,0.4,0.1c0.2,0.1,0.5,0.1,0.7,0.2l0.4,0.1c0.4,0.1,0.8,0.2,1.1,0.2
			c0.1,0,0.2,0,0.2,0c0.3,0.1,0.6,0.1,1,0.2c0.2,0,0.3,0.1,0.5,0.1c0.3,0,0.5,0.1,0.8,0.1c0.2,0,0.3,0.1,0.5,0.1
			c0.3,0,0.5,0.1,0.8,0.1c0.2,0,0.3,0,0.5,0.1c0.3,0,0.6,0.1,0.9,0.1c0.1,0,0.3,0,0.4,0.1c0.4,0.1,0.9,0.1,1.3,0.2
			c0.1,0,0.1,0,0.2,0c0.4,0,0.8,0.1,1.2,0.1c0.2,0,0.3,0,0.5,0c0.3,0,0.6,0.1,0.9,0.1l0.5,0.1c0.3,0,0.6,0,0.9,0.1
			c0.2,0,0.4,0,0.5,0c0.3,0,0.6,0,1,0.1c0.2,0,0.3,0,0.5,0c0.5,0,1,0.1,1.4,0.1c0,0,0.1,0,0.1,0c0.5,0,0.9,0,1.4,0.1l0.5,0
			c0.3,0,0.7,0,1,0l0.6,0c0.3,0,0.6,0,0.9,0c0.2,0,0.4,0,0.5,0l1,0c0.2,0,0.3,0,0.5,0c0.5,0,1,0,1.5,0c0.5,0,1,0,1.5,0
			c0.1,0,0.3,0,0.5,0c0.3,0,0.7,0,1,0c0.2,0,0.4,0,0.5,0c0.3,0,0.6,0,0.9,0c0.2,0,0.4,0,0.5,0c0.3,0,0.7,0,1,0c0.2,0,0.3,0,0.5,0
			c0.5,0,0.9,0,1.4-0.1h0.1l1.4-0.1c0.2,0,0.3,0,0.5,0c0.3,0,0.6,0,1-0.1c0.2,0,0.4,0,0.5,0l0.9-0.1c0.2,0,0.4,0,0.5-0.1
			c0.3,0,0.6-0.1,0.9-0.1c0.2,0,0.3,0,0.5,0c0.4,0,0.8-0.1,1.2-0.1c0.1,0,0.1,0,0.2,0c0.4,0,0.9-0.1,1.3-0.2c0.2,0,0.3,0,0.4-0.1
			c0.3,0,0.6-0.1,0.9-0.1c0.2,0,0.3,0,0.5-0.1c0.3,0,0.5-0.1,0.8-0.1c0.2,0,0.3-0.1,0.5-0.1c0.3,0,0.5-0.1,0.8-0.1
			c0.1,0,0.3,0,0.5-0.1c0.3-0.1,0.7-0.1,1-0.2c0.1,0,0.2,0,0.2,0c0.4-0.1,0.8-0.2,1.1-0.2c0.1,0,0.3-0.1,0.4-0.1
			c0.2-0.1,0.5-0.1,0.7-0.2c0.1,0,0.3-0.1,0.4-0.1c0.2-0.1,0.4-0.1,0.7-0.2c0.1,0,0.3-0.1,0.4-0.1c0.2-0.1,0.4-0.1,0.6-0.2
			c0.1,0,0.3-0.1,0.4-0.1c0.3-0.1,0.5-0.1,0.8-0.2c0.1,0,0.1,0,0.2-0.1c0.3-0.1,0.6-0.2,0.9-0.3c0.1,0,0.2-0.1,0.3-0.1
			c0.2-0.1,0.4-0.1,0.6-0.2c0.1,0,0.2-0.1,0.3-0.1c0.2-0.1,0.3-0.1,0.5-0.2c0.1,0,0.2-0.1,0.3-0.1c0.2-0.1,0.3-0.1,0.5-0.2
			c0.1,0,0.2-0.1,0.3-0.1c0.2-0.1,0.3-0.2,0.5-0.3c0,0,0.1-0.1,0.1-0.1c0.2-0.1,0.4-0.2,0.6-0.4c0.1,0,0.1-0.1,0.1-0.1
			c0.1-0.1,0.2-0.1,0.3-0.2v4.1c0,1.6-3.3,3.2-9,4.5v0l-0.6,0.1c-3.2,0.7-6.8,1.2-10.9,1.6L91.9,63v0C90.1,63.2,88.1,63.3,86.1,63.4
			 M120.8,121.2c-0.7,0.9-2,1.4-3.6,1.4h-1.4c-2.8,0-3.7-0.6-4.4-2.9L93.7,64.2c3-0.3,5.8-0.7,8.3-1.1l0.6-0.1
			c0.2,0,0.5-0.1,0.7-0.1l17.7,55.8C121.4,119.7,121.3,120.5,120.8,121.2"/>
	</defs>
	<clipPath id="SVGID_32_">
		<use xlink:href="#SVGID_183_"  style="overflow:visible;"/>
	</clipPath>
	<g style="clip-path:url(#SVGID_32_);">
		<defs>
			<rect id="SVGID_185_" x="-2219.9" y="-116.2" width="2880" height="1212"/>
		</defs>
		<clipPath id="SVGID_34_">
			<use xlink:href="#SVGID_185_"  style="overflow:visible;"/>
		</clipPath>
		<rect x="27.4" y="32.2" style="clip-path:url(#SVGID_34_);fill:#FCFCFC;" width="105.2" height="112.7"/>
	</g>
</g>
<g>
	<defs>
		<path id="SVGID_187_" d="M80.7,135.4h-1.4c-5.5,0-6.3-3-6.3-4.9V65.3c-1.7-0.1-3.3-0.2-4.9-0.3l-17.5,55.3
			c-1.1,3.6-3.2,4.3-6.3,4.3h-1.4c-2.3,0-4.1-0.8-5.2-2.1c-0.6-0.8-1.2-2.2-0.6-4.3L54.5,63c-6.5-1.6-9.8-3.6-9.8-6.2v-6.5
			c0-6.4,21.1-8.7,35.3-8.7s35.3,2.3,35.3,8.7v6.5c0,2.6-3.3,4.6-9.8,6.2l17.5,55.1c0.6,2.1,0,3.5-0.6,4.3c-1,1.4-2.9,2.1-5.2,2.1
			h-1.4c-3.1,0-5.2-0.7-6.3-4.3L91.9,64.9c-1.6,0.1-3.3,0.2-4.9,0.3v65.3C87,132.4,86.2,135.4,80.7,135.4z M67.3,63.8l0.4,0
			c1.9,0.2,3.9,0.3,5.9,0.4l0.5,0v66.3c0,2.5,1.7,3.7,5.2,3.7h1.4c3.4,0,5.2-1.3,5.2-3.7V64.2l0.5,0c2-0.1,4-0.2,5.9-0.4l0.5,0
			l17.8,56.1c0.9,3,2.5,3.5,5.2,3.5h1.4c1.9,0,3.5-0.6,4.3-1.7c0.5-0.6,0.9-1.7,0.5-3.3L104,62.1l0.6-0.1c6.1-1.4,9.5-3.3,9.5-5.2
			v-6.5c0-4.2-15.3-7.5-34.2-7.5c-18.8,0-34.2,3.4-34.2,7.5v6.5c0,2,3.4,3.9,9.5,5.2l0.6,0.1l-17.8,56.3c-0.5,1.6,0,2.7,0.5,3.3
			c0.8,1.1,2.4,1.7,4.3,1.7h1.4c2.7,0,4.3-0.5,5.2-3.5L67.3,63.8z M80.7,134h-1.4c-3.3,0-4.9-1.1-4.9-3.5V64.2l1.1,0
			c0.5,0,1.1,0,1.6,0l0.7,0c1.5,0,2.9,0,4.3,0l0.7,0c0.5,0,1.1,0,1.6,0l1.1,0v66.3C85.6,132.9,84,134,80.7,134z M75.5,65.4v65.2
			c0,0.8,0,2.4,3.8,2.4h1.4c3.8,0,3.8-1.6,3.8-2.4V65.4c-0.5,0-1.1,0-1.6,0l-0.7,0c-1.5,0-2.9,0-4.4,0l-0.7,0
			C76.6,65.4,76,65.4,75.5,65.4z M117.1,123.2h-1.4c-3,0-4.2-0.8-4.9-3.3L93,63.7l0.7-0.1c2.9-0.3,5.7-0.7,8.3-1.1l1.8-0.3
			l17.8,56.2c0.3,1.3,0.2,2.3-0.4,3.1C120.4,122.6,118.9,123.2,117.1,123.2z M94.5,64.7l17.4,54.8c0.6,2.1,1.4,2.6,3.9,2.6h1.4
			c1.4,0,2.6-0.4,3.2-1.2c0.4-0.5,0.5-1.2,0.2-2.1L103,63.5l-0.8,0.2C99.8,64.1,97.2,64.5,94.5,64.7z M44.3,123.2h-1.4
			c-1.8,0-3.3-0.6-4.1-1.6c-0.6-0.8-0.8-1.9-0.4-3.1l17.8-56.3l1.8,0.3c2.6,0.5,5.3,0.9,8.3,1.1l0.7,0.1l-17.8,56.1
			C48.4,122.4,47.3,123.2,44.3,123.2z M57,63.5l-17.5,55.3c-0.2,0.9-0.2,1.6,0.2,2.1c0.5,0.7,1.8,1.2,3.2,1.2h1.4
			c2.5,0,3.2-0.5,3.9-2.5l17.4-54.8c-2.7-0.3-5.3-0.6-7.7-1.1L57,63.5z M80,64c-0.9,0-1.8,0-2.7,0l-0.2,0c-1,0-1.9,0-2.8-0.1l-0.4,0
			c-2-0.1-4-0.2-5.8-0.3l-0.9-0.1c-4.1-0.4-7.8-0.9-11-1.6l-0.1,0v0l-0.5-0.1c-4.3-1-9.5-2.6-9.5-5v-5.3l0.9,0.8
			c0.1,0,0.1,0.1,0.2,0.1l0.2,0.2c0.2,0.1,0.3,0.2,0.5,0.3l-0.2,0.6l0.3-0.5c0.2,0.1,0.3,0.2,0.5,0.3l0.2,0.1
			c0.2,0.1,0.4,0.2,0.5,0.3l0.3,0.1c0.2,0.1,0.3,0.1,0.5,0.2l0.3,0.1c0.2,0.1,0.4,0.1,0.6,0.2l0.3,0.1c0.3,0.1,0.6,0.2,0.9,0.3
			l0.2,0.1c0.2,0.1,0.5,0.1,0.7,0.2l3.6,0.9c0.4,0.1,0.7,0.1,1.1,0.2l0.2,0c0.3,0.1,0.6,0.1,1,0.2l0.5,0.1c0.3,0,0.5,0.1,0.8,0.1
			l1.8,0.3c0.3,0,0.6,0.1,0.9,0.1l0.4,0.1c0.4,0,0.9,0.1,1.3,0.1l6.2,0.5c0.5,0,0.9,0.1,1.4,0.1l6.4,0.2c1,0,1.9,0,2.9,0l6.3-0.2
			c0.6,0,1-0.1,1.5-0.1l4.8-0.4c0.4,0,0.8-0.1,1.2-0.1l0.2,0.5L95.5,57c0.4-0.1,0.9-0.1,1.3-0.2l4.3-0.6c0.3-0.1,0.7-0.1,1-0.2
			l0.2,0c0.4-0.1,0.8-0.1,1.1-0.2l3.6-0.9c0.3-0.1,0.5-0.2,0.7-0.2l0.4,0.5l-0.2-0.5c0.3-0.1,0.6-0.2,0.9-0.3l0.2-0.1
			c0.3-0.1,0.4-0.2,0.6-0.2l0.3-0.1c0.2-0.1,0.3-0.1,0.5-0.2l0.3-0.1c0.1-0.1,0.3-0.1,0.4-0.2l0.2-0.1c0.2-0.1,0.3-0.2,0.5-0.3
			l0.4,0.4l-0.3-0.5c0.2-0.1,0.4-0.2,0.5-0.3l0.2-0.2c0.1,0,0.1-0.1,0.2-0.1l0.9-0.8v5.3c0,2.4-5.1,4.1-9.5,5l-0.5,0.1v0l-0.1,0
			c-3.2,0.7-6.9,1.2-11,1.6L92,63.6c-1.8,0.2-3.8,0.3-5.8,0.4l-0.4,0C84.8,64,83.9,64,83,64l-0.3,0C81.8,64,80.9,64,80,64z
			 M55.5,60.6l0.9,0.2c3.1,0.7,6.8,1.2,10.9,1.6l0.9,0.1c1.8,0.1,3.7,0.3,5.8,0.3l0.4,0c0.9,0,1.8,0.1,2.7,0.1l0.3,0
			c1.8,0,3.6,0,5.4,0l0.3,0c0.9,0,1.8,0,2.7-0.1l0.4,0c2-0.1,3.9-0.2,5.8-0.3l0.9-0.1c4.1-0.4,7.7-0.9,10.9-1.6l1.1-0.2v0
			c6.4-1.5,8.1-3.1,8.1-3.8v-3c0,0-0.1,0.1-0.1,0.1l-0.1,0.1c-0.2,0.1-0.3,0.2-0.5,0.3l-0.2,0.1c-0.2,0.1-0.4,0.2-0.5,0.3l-0.2,0.1
			c-0.2,0.1-0.4,0.2-0.6,0.3l-0.3,0.1c-0.2,0.1-0.4,0.1-0.6,0.2l-0.3,0.1c-0.3,0.1-0.6,0.2-0.9,0.3l-0.1,0c-0.3,0.1-0.6,0.2-0.9,0.3
			l-3.7,0.9c-0.4,0.1-0.8,0.2-1.2,0.2l-0.2,0c-0.3,0.1-0.6,0.1-1,0.2l-4.4,0.6C96.5,58,96,58,95.6,58.1l-0.1,0
			c-0.5,0.1-0.9,0.1-1.3,0.1l-4.8,0.4c-0.5,0-1,0.1-1.4,0.1l-6.5,0.2c-1,0-2,0-2.9,0l-6.4-0.2c-0.6,0-1.1-0.1-1.5-0.1l-6.2-0.5
			C64,58,63.5,58,63.1,57.9l-0.4-0.1c-0.3,0-0.6-0.1-0.9-0.1l-1.8-0.3c-0.3,0-0.5-0.1-0.8-0.1l-0.5-0.1c-0.3-0.1-0.7-0.1-1-0.2
			l-0.2,0c-0.4-0.1-0.8-0.1-1.2-0.2L52.6,56c-0.3-0.1-0.5-0.1-0.8-0.2l0-0.6l-0.2,0.5c-0.4-0.1-0.7-0.2-1-0.3l-0.2-0.1
			c-0.3-0.1-0.5-0.2-0.7-0.3l-0.3-0.1c-0.2-0.1-0.3-0.1-0.5-0.2l-0.3-0.1c-0.2-0.1-0.3-0.2-0.5-0.2L48,54.2
			c-0.2-0.1-0.4-0.2-0.5-0.3l-0.1-0.1c0,0-0.1-0.1-0.1-0.1v3C47.2,57.5,49,59.1,55.5,60.6z M80,57.5c-18.7,0-33.9-3.3-33.9-7.3
			c0-4,15.2-7.3,33.9-7.3c18.7,0,33.9,3.3,33.9,7.3C113.9,54.3,98.7,57.5,80,57.5z M80,44.1c-21.5,0-32.8,4-32.8,6.2
			c0,2.2,11.3,6.2,32.8,6.2s32.8-4,32.8-6.2C112.8,48.1,101.5,44.1,80,44.1z"/>
	</defs>
	<clipPath id="SVGID_36_">
		<use xlink:href="#SVGID_187_"  style="overflow:visible;"/>
	</clipPath>
	<g style="clip-path:url(#SVGID_36_);">
		<defs>
			<rect id="SVGID_189_" x="-2219.9" y="-116.2" width="2880" height="1212"/>
		</defs>
		<clipPath id="SVGID_38_">
			<use xlink:href="#SVGID_189_"  style="overflow:visible;"/>
		</clipPath>
		<rect x="26.8" y="31.6" style="clip-path:url(#SVGID_38_);fill:#FCFCFC;" width="106.3" height="113.8"/>
	</g>
</g>
<g>
	<defs>
		<path id="SVGID_193_" d="M168.5,382.4C102.2,441.8,55.4,514.4-6.9,578c-57.9,59.1-121.3,107.4-191,154.4
			c-51.5,34.7-68.8,61.9-93.1,113.1c-11,23.1-23.4,43.2-41.8,63c-25.5,27.4-58,53.8-57.3,90c0.7,36.8,48.6,68,32.5,106.6
			c-11.3,27.1-51.3,48.7-77,64.6c-72,44.6-149,81.3-174,162.5c-11.7,38,2.1,71.1-34.5,102.7c-33.3,28.8-79.2,35-110,66.4
			c-78.2,79.9-78.6,171.3-103.6,264.1c-7,25.9-26.1,94.5-58.8,105c-45.2,14.4-63.4-58.9-109.7-3.1c-32.9,39.6-36.4,98.9-42.8,143
			c-9.6,65.8-25.6,116-70,174.4c-6.8-24-14.9-47-24.6-69.9c38.5-47.9,63.7-92.2,79.4-147.3c12-42.1,11.2-109.1,42.8-146.8
			c27.1-32.3,43.7-6.1,75-14.9c30.7-8.6,59.7-60.5,71.8-83.8c20.6-39.6,26.6-80.1,40.4-120.7c14.3-42.2,40.9-86.7,73.1-122.2
			c24.4-26.8,59.7-42.2,84.8-68.4c30.6-31.9,23.8-63.2,39.6-99.2c29.8-68.2,108.5-109.2,168.8-153.6c28.4-20.9,65-48.6,75.9-80.5
			c13.9-40.7-21.3-73-24.5-110.9c-3.6-43.1,25.6-67.7,65.1-89.4c55.9-30.8,71.2-87.3,120.7-126.2c60-47.3,117.8-93.3,170.6-147.7
			c27.6-28.5,54.2-57.3,78-88.3c12.5-16.2,45.5-88.2,71.1-54.7C104.3,436,136.2,408.9,168.5,382.4"/>
	</defs>
	<clipPath id="SVGID_40_">
		<use xlink:href="#SVGID_193_"  style="overflow:visible;"/>
	</clipPath>
	<g class="st17">
		<defs>
			<rect id="SVGID_195_" x="-3179.5" y="43.7" width="2880" height="1212"/>
		</defs>
		<clipPath id="SVGID_42_">
			<use xlink:href="#SVGID_195_"  style="overflow:visible;"/>
		</clipPath>
	</g>
</g>
<g>
	<defs>
		<path id="SVGID_197_" d="M326.5,355c-66.3,84.9-134.9,168.5-214.8,244.3C44.5,663.1-28,713-107.5,762.9
			c-47.2,29.7-73.7,58.1-94.9,105.7c-12.2,27.3-21,54.9-35,81.8c-17.3,33.2-47.5,73.7-35.9,107.9c9.4,27.7,61.4,54.9,55.7,85.6
			c-5.5,29.7-61.2,46.7-85.8,57.2c-74.6,32-206.1,77.2-205.3,166.9c0.4,45.1,18.9,76.8-27.7,114.8c-39.2,32-91.5,39.9-133.4,67.2
			c-115.8,75.3-108.9,234.8-111.6,337c-0.8,30.7,5.3,141.2-57.9,127c-42.5-9.5-88.2-104.1-142.8-45.8
			c-24.1,25.7-30.5,68.9-39.9,98.9c-8.8,27.9-17.2,55.9-23.9,84c-10.5,44.2-22.2,174.3-91.7,181.3c12.9-20.9,17.8-40.8,22-63.2
			c44.4-59.4,59.2-114.3,62.3-180.5c2.4-52.1,8.1-123.1,53-167.9c30.3-30.2,54.3-19.4,80.6-0.9c9,6.4,33.1,30.9,48.7,29.3
			c40.8-4.1,55.8-100.2,59.4-125.7c14.3-101.4,13.4-207.4,103.7-292.3c37.2-34.9,90.6-30.3,131.3-60.5
			c43.4-32.2,23.4-67.5,31.4-108.7c18-91.6,93.7-127.9,176.7-170.3c25.5-13,75.9-31.2,84.2-58.7c10.1-33.4-39.9-59.9-40.9-93.2
			c-1.1-37.7,42.8-72.2,60.6-107c14.8-28.9,21.5-59.3,31.5-89.1c18.8-56.1,43.5-81.2,98.8-113.7c81.2-47.7,152.6-97,218.8-162.3
			c77.6-76.6,143-161.9,207.5-246.8C326.4,315.9,337.4,323.5,326.5,355"/>
	</defs>
	<clipPath id="SVGID_44_">
		<use xlink:href="#SVGID_197_"  style="overflow:visible;"/>
	</clipPath>
	<g style="clip-path:url(#SVGID_44_);">
		<defs>
			<rect id="SVGID_199_" x="-3179.5" y="43.7" width="2880" height="1212"/>
		</defs>
		<clipPath id="SVGID_46_">
			<use xlink:href="#SVGID_199_"  style="overflow:visible;"/>
		</clipPath>
	</g>
</g>
<g>
	<defs>
		<path id="SVGID_201_" d="M308,491.4c-83.4,107.6-175.9,209.9-282.2,301c-46.1,39.4-106.1,76-137.6,126.6
			c-22.1,35.5-52.9,81.8-44.8,120.8c5.7,27.7,26.7,50.2,47.8,68.6c17.1,14.9,55.3,30.6,53.5,55.9c-3.8,51.4-148.4,81-188.8,95.8
			c-41.6,15.2-89.5,28.7-125.2,56.1c-12,9.2-30.6,24.8-34.5,38.9c-5.6,20.6,13.4,28.5,19.3,46.5c20.5,62.3-65.4,132.8-123.3,163.1
			c-24.9,13-53,18.1-75.4,35.4c-22.7,17.6-38.7,48.8-50.1,73c-23.5,50-39.6,102.8-46.7,154.7c-7.9,57.6-6.1,114-0.7,170.1
			c3.1,32.6,32.5,144.3-41.7,124.6c-54.9-14.6-78.9-80.5-143.2-77.8c-66.8,2.8-59,95.9-71.3,136.4c-20.6,67.7-63.2,135.5-98.3,199.7
			c-15.1,27.7-30.1,58.6-51,83.8c-5.1,10.9-13.7,19.1-25.7,24.6c-2.7-3.2-5.3-6.3-8-9.5c-10.5-6.3-15.9-23.8-21.4-33.6
			c-7.1-16.7,0.1-35.2,6.4-52.6c6.3,6.5,13.4,18.2,23.6,20.6c14,3.4,14.2,0,24.8-14c19.3-25.5,33-56.2,45.5-84.1
			c27.1-60.3,56.7-124,74.8-185.9c11.2-38.4,8.3-125.3,69.3-127.5c62.7-2.2,81.3,69.7,136.8,81.1c66.2,13.7,47.5-83.8,45.7-113.9
			c-3.3-52.7-6.9-105.6-1.7-159.4c4.7-49.1,17.2-98.8,38.9-146.3c10.2-22.5,22.8-46.9,41.4-65.7c21.1-21.3,48.5-28.8,75.7-41.3
			c65.5-30.1,151.9-81.9,135.5-153.4c-4.5-19.9-19.8-31.1-13.3-52.6c4.6-15.1,21.4-31.4,34.1-42.2c32.2-27.4,75.2-44.6,114-60.8
			c35.9-15.1,177.5-45.4,178.4-93.4c0.4-23.4-38.7-40.2-53.8-54.6c-20.7-19.7-34.7-41-31.8-70.9c3.8-39.2,32.3-81.7,51.5-118
			c34.1-64.7,92.7-99.9,152.8-144.5c130.6-96.9,236.7-216.4,333.6-339.7C329.6,448.1,318.3,469.6,308,491.4"/>
	</defs>
	<clipPath id="SVGID_48_">
		<use xlink:href="#SVGID_201_"  style="overflow:visible;"/>
	</clipPath>
	<g class="st21">
		<defs>
			<rect id="SVGID_203_" x="-3179.5" y="43.7" width="2880" height="1212"/>
		</defs>
		<clipPath id="SVGID_50_">
			<use xlink:href="#SVGID_203_"  style="overflow:visible;"/>
		</clipPath>
	</g>
</g>
<g>
	<defs>
		<path id="SVGID_205_" d="M265.3,585.9C194,682.7,117.1,778.1,28.1,863.5c-40.6,38.9-79.6,79-96.5,129.9
			c-13.8,41.4-0.3,71.9,17.1,106.2c10.3,20.4,33.6,55.3,27.7,81.1c-7.9,34.5-64.9,50.9-94.4,63.4c-55.9,23.8-219.1,62.6-214,133.3
			c2.8,38.7,6.6,63-14.2,103.2c-15.7,30.5-36.8,62.9-62.9,88.1c-95.4,92.1-190.4,202.9-217.9,324c-11.4,50,10.4,152.5-53,181
			c-47.3,21.2-102.6,14.2-146.6,45.2c-22.9,16.1-40.8,38.5-54.7,61c-27.5,44.3-53.8,89.3-81.7,133.7
			c-21.7,34.4-42.7,69.1-64.4,103.5c-14.9,23.8-37.4,88.1-78.2,74.1c-6.4-10.7-9-16.5-13.6-28.4c7.2,11.5,18,18.7,32.5,21.5
			c15.1-18,28.5-36.9,40.1-56.6c26.5-41.9,50-85,74.5-127.7c23.9-41.8,48.9-82,67.4-125.5c12-28.2,22-71.3,48.9-93.5
			c51.1-42,103.7,1.3,149.2,9.9c48.2,9.1,56.7-25.7,55.8-61.3c-0.9-37.7-2.8-74.7,0.5-112.9c5.1-58.9,20.1-119.3,47.3-176
			c29.4-61.3,64.4-130.8,129.3-168.8c37.7-22.1,71.2-52.6,96.3-86.4c13.2-17.7,25-37.5,29.2-57.8c5.1-24.5-7.4-35.9-9.9-57.2
			c-9.2-78.2,176.8-120.9,239.2-145.9c31.7-12.7,97-32,88.5-72.2c-5.1-24.2-38.8-49.8-52.3-69.8c-55.3-81.9,4.1-170.2,84.3-238.5
			c110.5-94.1,205-201.2,290.1-313.4C282.7,548.9,273.8,567.3,265.3,585.9"/>
	</defs>
	<clipPath id="SVGID_52_">
		<use xlink:href="#SVGID_205_"  style="overflow:visible;"/>
	</clipPath>
	<g style="clip-path:url(#SVGID_52_);">
		<defs>
			<rect id="SVGID_207_" x="-3179.5" y="43.7" width="2880" height="1212"/>
		</defs>
		<clipPath id="SVGID_54_">
			<use xlink:href="#SVGID_207_"  style="overflow:visible;"/>
		</clipPath>
	</g>
</g>
<g>
	<defs>
		<path id="SVGID_209_" d="M251.2,685.6c-62,81.6-123.4,163.7-189.4,243c-25.4,30.5-54.1,63.3-65.5,99.6
			c-13.6,43.1,11.1,73.9,17.1,113c11.5,75.3-66.2,107.4-131.4,138.7c-52.9,25.4-146.8,48.1-160.9,107.9c-6.7,28.3-6.2,62.6-5.2,90.3
			c1,27.3,14.4,54.3,5.4,82.6c-18.1,57-94.3,96.3-145.1,126.8c-57.1,34.3-104.3,69.5-135.2,125.7c-36.8,66.9-43.9,141.6-53.2,211.9
			c-3.3,24.5-0.2,52.9-13.4,76.9c-20.2,36.8-59.2,44.7-97.6,49.6c-45.9,5.9-69.9,0.5-103.5,39.3c-26.4,30.5-50.6,66-74.7,97.9
			c-56.7,74.9-106.6,152.1-149.8,232.8c-10.3-4.9-17.3-9.1-26.2-17.6c38.2-27.2,55.7-67.5,79.1-103.9c22.7-35.3,45.9-70.3,69.9-105
			c23.3-33.7,46.6-67.5,70-101.2c26.8-38.7,51.7-51.9,97.1-67c28.7-9.5,62.2-14.4,86-34.8c15-12.8,20.7-27.9,29.8-43.5
			c17.9-30.7,26.5-52.6,31.5-86.1c5.6-37.6,8.7-72.7,22.7-110c44.5-119.2,168.8-183.7,245.4-286c41.3-55.1,43.6-131.2,46.9-189.8
			c3.8-66.4,141.5-99.3,196.5-124c29.1-13.1,69.3-25.2,87.2-52.5c18.1-27.6,10.8-61.1,1.9-86.4c-13.2-37.7-30.3-67.2-15.7-110.9
			c13.4-40.2,43.6-75.2,74.1-107.7c78.3-83.4,147.1-173.8,213.3-264.4C253.3,650.5,251.1,665.8,251.2,685.6"/>
	</defs>
	<clipPath id="SVGID_56_">
		<use xlink:href="#SVGID_209_"  style="overflow:visible;"/>
	</clipPath>
	<g style="clip-path:url(#SVGID_56_);">
		<defs>
			<rect id="SVGID_211_" x="-3179.5" y="43.7" width="2880" height="1212"/>
		</defs>
		<clipPath id="SVGID_58_">
			<use xlink:href="#SVGID_211_"  style="overflow:visible;"/>
		</clipPath>
	</g>
</g>
<g>
	<defs>
		<path id="SVGID_213_" d="M341.3,701.7c-65.8,80-132.4,159.8-201.7,237.5c-29.3,32.8-63.6,69.2-77.5,109.2
			c-12.5,36.1-3.6,70.3-8.4,106.1c-10.8,80.7-88.6,111.5-158.6,150.1c-47.8,26.4-114.7,54.6-121.1,108.4c-3.2,27,3.9,53.6,13.1,77.6
			c12.7,32.9,45.3,63.2,22.3,103.4c-26.5,46.3-102.6,59-149.1,80.5c-77.2,35.6-137.7,86.4-171.5,159.3c-30,64.7-27.8,132.9-22,197.2
			c6.4,70,24.9,185.8-98.6,168.3c-39.7-5.6-69.9-10.9-107.1,17.9c-30.8,23.8-61,60.7-86.8,88.6c-62.7,68-126.1,138.2-183.3,209.7
			c-7.1-6.1-10.8-9-14.3-18c37-87.3,93-163.9,157.1-239.7c24.3-28.7,51.8-67,80.3-92.6c36.2-32.5,63-23.4,103-19
			c50.6,5.6,95.1-5.6,110.5-59.3c9.5-33,0.5-69-0.9-100.9c-2.7-62.6,0-128.9,34.9-189.7c42-73,100.5-106.4,179.2-139
			c47.2-19.6,119.2-41.9,138.6-91.2c16.1-41.1-18.8-67.2-28.5-101.8c-7-24.9-8.7-53.1-0.9-79.8c16-54.6,87.7-77.5,138.1-103.1
			c64.9-33,160.1-65.7,155.7-144.4c-2.1-36.7-22.6-69.2-11.9-108c10.2-37,45.9-72.8,71.7-103.2c62.5-73.5,121.3-149.3,183.7-222.9
			C302.9,707.6,324.6,706.9,341.3,701.7"/>
	</defs>
	<clipPath id="SVGID_60_">
		<use xlink:href="#SVGID_213_"  style="overflow:visible;"/>
	</clipPath>
	<g class="st27">
		<defs>
			<rect id="SVGID_215_" x="-3179.5" y="43.7" width="2880" height="1212"/>
		</defs>
		<clipPath id="SVGID_62_">
			<use xlink:href="#SVGID_215_"  style="overflow:visible;"/>
		</clipPath>
	</g>
</g>
<g>
	<defs>
		<path id="SVGID_217_" d="M452.8,641.4C385,742.3,308.7,839.2,229.7,934.1c-38.3,46-68.8,91.1-92.7,143.3
			c-14.3,31.3-24.6,63.3-39.1,94.6c-16.7,36-30.7,71.2-63.1,100c-26.9,23.9-59.5,40.1-89.6,59.9c-50.6,33.3-116.3,79.3-113.9,137.3
			c2.2,53.7,70.4,133.9,28.3,188.5c-35.4,45.8-118.3,34.6-168,58.2c-77.9,36.9-139.3,116.5-162.5,189
			c-22.9,71.4-12.6,143.2-0.6,210.9c7.1,40.3,21.7,82.9,14.8,125.7c-2.5,21.4-11.6,41-27.3,58.9c-21.6,11.9-41.5,11.5-59.6-1.2
			c-184.9-44.2-272.7,218.9-454.2,235.7c10.4,0.1,20.2-1.5,14.7-8.7c79.4-47.4,135.8-107.9,198.4-171.5
			c30.7-31.2,64.8-71.1,104.2-93.7c45.6-26.2,76.8-18.4,123.3-11c18.7,11.4,34.1,9.2,46.4-6.6c15.6-10.8,25.4-25,29.3-42.6
			c15.1-45.1-2.1-93.7-7.9-136.3c-8.6-63.1-14.3-129.8,9.7-195c25.9-70.4,82.2-133.7,155-172.7c47-25.2,145.2-31.4,171.4-83
			c18.1-35.6-8.1-70.3-20-99.9c-9.5-23.8-18.9-49.1-18.3-75.9c1.3-55.4,65.5-90,113.9-119.8c73.4-45.1,132.2-72.4,156.6-153.8
			c9.9-32.9,11-66.4,23.5-99.1c17.4-45.5,50.2-86,83.8-124.4c75.6-86.3,148.3-174.9,216.6-265.6C420.1,665,436.7,653.2,452.8,641.4"
			/>
	</defs>
	<clipPath id="SVGID_64_">
		<use xlink:href="#SVGID_217_"  style="overflow:visible;"/>
	</clipPath>
	<g style="clip-path:url(#SVGID_64_);">
		<defs>
			<rect id="SVGID_219_" x="-3179.5" y="43.7" width="2880" height="1212"/>
		</defs>
		<clipPath id="SVGID_66_">
			<use xlink:href="#SVGID_219_"  style="overflow:visible;"/>
		</clipPath>
	</g>
</g>
</svg>
